<?xml version="1.0" encoding="UTF-8" standalone="no"?>
<!-- Created with Inkscape (http://www.inkscape.org/) -->

<svg
   xmlns:dc="http://purl.org/dc/elements/1.1/"
   xmlns:cc="http://creativecommons.org/ns#"
   xmlns:rdf="http://www.w3.org/1999/02/22-rdf-syntax-ns#"
   xmlns:svg="http://www.w3.org/2000/svg"
   xmlns="http://www.w3.org/2000/svg"
   xmlns:sodipodi="http://sodipodi.sourceforge.net/DTD/sodipodi-0.dtd"
   xmlns:inkscape="http://www.inkscape.org/namespaces/inkscape"
   width="744.09448"
   height="1052.3622"
   id="svg4305"
   version="1.1"
   inkscape:version="0.91pre2 r13516"
   viewBox="0 0 744.09448 1052.3622"
   sodipodi:docname="buildingblocks.svg">
  <defs
     id="defs4307">
    <marker
       inkscape:stockid="Arrow2Lend"
       orient="auto"
       refY="0.0"
       refX="0.0"
       id="Arrow2Lend"
       style="overflow:visible;"
       inkscape:isstock="true">
      <path
         id="path4214"
         style="fill-rule:evenodd;stroke-width:0.625;stroke-linejoin:round;stroke:#000000;stroke-opacity:1;fill:#000000;fill-opacity:1"
         d="M 8.7185878,4.0337352 L -2.2072895,0.016013256 L 8.7185884,-4.0017078 C 6.9730900,-1.6296469 6.9831476,1.6157441 8.7185878,4.0337352 z "
         transform="scale(1.1) rotate(180) translate(1,0)" />
    </marker>
    <marker
       inkscape:stockid="Arrow1Lend"
       orient="auto"
       refY="0.0"
       refX="0.0"
       id="Arrow1Lend"
       style="overflow:visible;"
       inkscape:isstock="true">
      <path
         id="path4196"
         d="M 0.0,0.0 L 5.0,-5.0 L -12.5,0.0 L 5.0,5.0 L 0.0,0.0 z "
         style="fill-rule:evenodd;stroke:#000000;stroke-width:1pt;stroke-opacity:1;fill:#000000;fill-opacity:1"
         transform="scale(0.8) rotate(180) translate(12.5,0)" />
    </marker>
  </defs>
  <sodipodi:namedview
     id="base"
     pagecolor="#ffffff"
     bordercolor="#666666"
     borderopacity="1.0"
     inkscape:pageopacity="0.0"
     inkscape:pageshadow="2"
     inkscape:zoom="1.4"
     inkscape:cx="338.76006"
     inkscape:cy="550.60614"
     inkscape:document-units="px"
     inkscape:current-layer="layer1"
     showgrid="false"
     inkscape:window-width="2560"
     inkscape:window-height="1369"
     inkscape:window-x="1911"
     inkscape:window-y="-9"
     inkscape:window-maximized="1" />
  <metadata
     id="metadata4310">
    <rdf:RDF>
      <cc:Work
         rdf:about="">
        <dc:format>image/svg+xml</dc:format>
        <dc:type
           rdf:resource="http://purl.org/dc/dcmitype/StillImage" />
        <dc:title />
      </cc:Work>
    </rdf:RDF>
  </metadata>
  <g
     inkscape:label="Layer 1"
     inkscape:groupmode="layer"
     id="layer1">
    <g
       id="g4969"
       transform="translate(-6.0609154,3.535534)">
      <path
         inkscape:connector-curvature="0"
         style="display:inline;fill:none;fill-rule:evenodd;stroke:#000000;stroke-width:1.11613595px;stroke-linecap:butt;stroke-linejoin:miter;stroke-opacity:1"
         d="m 403.53693,403.87775 -30.99357,16.98427 c 0,0 44.78075,11.55248 29.62654,16.38926"
         id="path4147" />
      <path
         inkscape:connector-curvature="0"
         style="display:inline;fill:none;fill-rule:evenodd;stroke:#000000;stroke-width:1.11613595px;stroke-linecap:butt;stroke-linejoin:miter;stroke-opacity:1"
         d="m 397.10098,407.40459 c 7.17119,6.87497 8.6635,14.35579 1.63944,22.19613"
         id="path4149" />
      <path
         inkscape:connector-curvature="0"
         style="display:inline;fill:none;fill-rule:evenodd;stroke:#000000;stroke-width:1.11613595px;stroke-linecap:butt;stroke-linejoin:miter;stroke-opacity:1"
         d="m 399.50511,409.81236 c -6.28891,6.72198 -5.52826,12.85577 0.76749,17.9637"
         id="path4157" />
      <path
         inkscape:connector-curvature="0"
         id="path4149-1"
         style="display:inline;fill:#000000;fill-rule:evenodd;stroke:#000000;stroke-width:1.11613595px;stroke-linecap:butt;stroke-linejoin:miter;stroke-opacity:1"
         d="m 401.09485,412.60824 c 1.38557,3.28324 1.40514,8.61771 0.52591,12.30944 m 0,0 c -2.90933,-3.40878 -4.64795,-7.1504 -0.52591,-12.30944" />
      <circle
         style="display:inline;fill:#ffffff;fill-opacity:1;stroke:none;stroke-width:2.51399994;stroke-linecap:round;stroke-miterlimit:4;stroke-dasharray:none;stroke-opacity:0.46153846"
         id="path4191"
         cx="381.43466"
         cy="432.68329"
         r="1.1567746"
         transform="matrix(0.99908857,-0.0426852,0.0426852,0.99908857,0,0)"
         d="m 382.59144,432.68329 a 1.1567746,1.1567746 0 0 1 -1.15678,1.15677 1.1567746,1.1567746 0 0 1 -1.15677,-1.15677 1.1567746,1.1567746 0 0 1 1.15677,-1.15678 1.1567746,1.1567746 0 0 1 1.15678,1.15678 z" />
    </g>
    <g
       id="layer1-4"
       inkscape:label="Layer 1"
       transform="matrix(0.40151933,0,0,0.40151933,419.10882,484.03172)"
       style="fill:#cccccc;fill-opacity:0.50196078;stroke:#999999;stroke-width:6.22635031;stroke-miterlimit:4;stroke-dasharray:none;stroke-opacity:1">
      <path
         sodipodi:nodetypes="cssssccssscsssscsssssssssccssscsccssssss"
         inkscape:connector-curvature="0"
         id="path4231"
         d="m 82.159156,387.26447 c 5.320143,36.51997 35.708454,69.74432 88.609064,96.87864 13.72359,7.03923 14.53143,7.67455 17.82697,14.01969 4.80131,9.24431 13.9436,19.22093 27.8998,30.44595 6.54172,5.26154 13.27288,11.75065 14.95811,14.42024 7.54687,11.955 33.46654,17.62156 98.69012,21.57563 0,0 79.19738,0.0794 90.625,-0.57323 62.23044,-3.55408 98.21982,-11.7346 103.97283,-23.6334 1.19216,-2.46571 7.39806,-8.79337 14.375,-14.65704 13.73632,-11.54449 21.43331,-20.2939 27.90217,-31.71724 l 4.375,-7.7258 13.43112,-5.74439 c 30.9708,-13.24598 45.61023,-32.22026 58.43988,-75.74439 9.35924,-31.75085 11.30484,-37.39576 16.5764,-48.09435 9.12325,-18.5155 24.13221,-27.75236 47.4901,-42.13749 l 5.9375,-3.65665 -30.15108,-0.0115 c -33.14337,0.95308 -33.3384,0.9959 -43.59892,9.57325 -7.8045,6.52422 -13.01258,15.79319 -21.31192,37.92936 -10.98825,29.30806 -17.30121,38.72913 -30.42858,45.40977 -8.83752,4.4975 -23.2595,8.19091 -23.2595,5.95669 0,-9.80009 -39.55621,-97.39595 -45.7833,-101.38555 -1.97543,-1.26562 -4.41313,-3.08969 -5.41712,-4.05349 -4.64569,-4.45969 -19.25128,-7.99045 -55.04958,-13.30768 -65.54786,-9.73602 -71.42571,-14.25714 -50.54138,-38.87541 13.04943,-15.38257 11.27517,-20.04083 -8.75307,-22.98081 -13.42242,-2.27304 -27.04837,-1.87083 -43.87887,-0.004 -18.5064,2.71895 -19.47754,8.37863 -4.38991,25.58396 18.83005,21.47305 11.15652,26.47804 -55.60878,36.27037 -51.41715,7.54125 -58.83172,10.80979 -68.43166,30.16649 l -5.20346,10.49194 -17.53394,0.0411 c -87.29735,0.20463 -117.327016,9.09521 -121.892874,36.08769 -0.534603,3.16046 -0.554376,14.7889 0.12488,19.45163 z m 90.791484,71.97595 c -43.98676,-21.97283 -75.700478,-84.28287 -49.65898,-97.56825 9.29152,-4.74018 87.47656,-11.14615 87.47656,-7.16725 0,0.38911 -2.8595,7.36675 -6.35444,15.50585 -13.3204,31.02084 -22.06065,60.92351 -24.32901,83.23586 -0.95883,9.43141 -0.69544,9.21012 -7.13413,5.99379 z"
         style="fill:#cccccc;fill-opacity:0.50196078;stroke:#999999;stroke-width:6.22635031;stroke-miterlimit:4;stroke-dasharray:none;stroke-opacity:1" />
    </g>
    <path
       id="path4176"
       d="m 149.41332,746.11727 c -35.95296,-0.13393 -39.9076,-0.69439 -42.21789,-1.93631 -2.72823,-1.46658 -4.95657,-5.24362 -4.97571,-8.00428 -0.009,-1.3081 -0.32392,-1.5612 -1.38231,-1.11108 -5.523717,2.34922 -5.779647,2.01675 -7.199367,0.61448 -1.32201,-1.30577 -1.30823,-1.51619 0.29488,-4.49589 l 1.68181,-3.12598 -2.45884,-4.88993 c -1.35235,-2.68943 -3.25434,-5.84174 -4.22663,-7.00511 -1.05412,-1.26128 -2.00374,-3.79166 -2.35218,-6.26772 -0.32138,-2.28387 -1.16937,-4.8058 -1.88437,-5.60428 -0.97861,-1.09281 -1.31098,-3.0327 -1.34432,-7.84571 -0.0244,-3.52255 -0.51608,-7.49002 -1.09492,-8.83469 -0.88333,-2.05204 -0.8675,-3.16253 0.0993,-6.97279 0.68045,-2.68151 0.96166,-6.03326 0.68872,-8.20869 -0.36217,-2.88673 -0.0792,-4.42855 1.31667,-7.17605 0.97785,-1.92464 2.03127,-5.40283 2.3409,-7.72933 0.33563,-2.52193 1.52536,-5.80235 2.94638,-8.12398 1.56721,-2.56049 2.37635,-4.9142 2.36279,-6.87308 -0.0162,-2.33984 0.62582,-3.72382 2.99198,-6.44975 1.65694,-1.90887 3.24442,-4.56201 3.52771,-5.89586 0.28927,-1.362 2.064577,-3.95667 4.049467,-5.91848 1.94393,-1.92128 3.99108,-4.59265 4.54925,-5.93638 0.55819,-1.34373 2.1979,-3.27457 3.64384,-4.29077 2.47049,-1.73625 5.82859,-4.90558 15.11099,-14.26154 2.14517,-2.16216 4.30635,-3.92964 4.80261,-3.92772 0.77373,0.003 5.93351,-4.49162 10.64197,-9.27004 3.70223,-3.75723 7.22271,-8.56155 8.02665,-10.95381 0.96113,-2.86 0.85103,-2.86233 -2.942,-0.0619 -1.93004,1.42496 -3.19461,1.51306 -18.45037,1.28565 -9.58245,-0.14282 -17.27857,-0.60845 -18.54795,-1.12211 -1.66997,-0.67575 -3.65943,-0.6038 -8.63836,0.31248 -3.557787,0.65473 -11.285427,1.23031 -17.172567,1.27902 -8.54344,0.0707 -10.89955,0.32777 -11.67349,1.27356 -1.8861,2.30492 -6.96915,1.51716 -11.81286,-1.83069 -2.43504,-1.68306 -5.37389,-3.29071 -6.53078,-3.57256 -3.11001,-0.75771 -6.8677,-5.33888 -6.88355,-8.39205 -0.0212,-4.03031 1.35205,-8.00276 3.45986,-10.01062 1.07366,-1.02272 1.94893,-2.3143 1.94508,-2.87019 -0.0164,-2.36959 -8.59747,-8.05738 -13.2482,-8.78128 -3.27263,-0.5094 -5.14373,-2.7673 -3.336,-4.02566 1.74704,-1.21613 11.71762,-0.30045 17.44604,1.60219 2.72978,0.90671 8.6863,3.31673 13.23667,5.35566 4.55039,2.03892 10.54045,4.31245 13.31128,5.05225 l 5.03783,1.34512 1.8282,-2.15543 1.82821,-2.15542 1.98332,2.11055 c 1.9634,2.08931 2.06023,2.10524 9.63485,1.58398 7.863357,-0.54112 21.345177,-2.93877 29.547227,-5.25478 5.69313,-1.60755 4.32906,-2.46098 -3.97264,-2.48544 -7.714,-0.0229 -17.66771,-1.80551 -25.849577,-4.62979 -6.38299,-2.20333 -7.05625,-2.2923 -9.23223,-1.21978 -3.604,1.7764 -6.33225,0.7215 -7.24381,-2.80086 -0.71818,-2.77507 -0.88243,-2.8881 -4.16335,-2.86539 -3.1554,0.0219 -3.45233,-0.15301 -3.89605,-2.29445 -0.30013,-1.44843 -1.14822,-2.54766 -2.26055,-2.92999 -2.24837,-0.77277 -9.39897,-8.96315 -11.49299,-13.16424 -0.91428,-1.83423 -1.59747,-4.78064 -1.61253,-6.95437 -0.0232,-3.34977 0.32112,-4.12383 3.07766,-6.9188 3.0188,-3.06089 3.21175,-3.13296 7.04731,-2.63247 3.52061,0.45939 4.20164,0.29435 6.35007,-1.53901 1.92419,-1.64198 3.23667,-2.05932 6.54845,-2.08227 5.12572,-0.0354 8.82362,2.36108 14.12728,9.15573 3.709027,4.75171 3.561057,4.67436 11.033457,5.76729 1.31123,0.1918 2.87431,-1.9921 5.2093,-7.2783 0.89559,-2.02757 3.93114,-3.00091 14.87375,-4.76927 7.78292,-1.25772 14.27172,-1.73448 24.46406,-1.79746 l 13.87164,-0.0858 2.99604,-4.93012 c 1.64783,-2.71158 4.20985,-7.38501 5.69339,-10.38542 4.48709,-9.07497 13.2892,-16.71891 18.58943,-16.14343 3.21638,0.34925 2.77397,4.59447 -0.87444,8.39113 -3.57519,3.72042 -5.49183,8.26273 -4.36238,10.33845 1.34782,2.47705 6.59194,3.41739 12.98048,2.3276 16.8496,-2.87432 31.02604,-7.06085 44.99264,-13.28699 4.47691,-1.99578 8.80675,-3.6333 9.62183,-3.63894 5.40635,-0.0374 -1.60902,8.40779 -12.90408,15.53418 -6.35554,4.00989 -24.38098,12.31476 -39.99769,18.42813 -3.43445,1.34448 -6.34119,2.74082 -6.45944,3.10301 -0.11825,0.36219 1.56074,0.52312 3.73107,0.35766 2.77159,-0.21134 4.55935,0.095 6.00658,1.02891 1.94592,1.25585 2.53678,1.24976 10.62744,-0.10946 6.42984,-1.08022 8.79265,-1.21666 9.47169,-0.54697 0.49758,0.49075 1.67986,0.8869 2.62724,0.88034 2.57083,-0.0179 2.87306,1.99858 0.69334,4.62575 -1.93795,2.33575 -6.02177,4.69382 -11.45995,6.61717 -4.07738,1.44206 -2.90254,2.69773 4.30781,4.6042 5.14765,1.36106 6.31621,2.01038 8.54986,4.75078 2.40789,2.95418 2.5109,3.31057 1.48574,5.14104 -0.7743,1.38256 -2.78901,2.56971 -6.78231,3.99639 -5.9951,2.14186 -6.68856,3.0964 -4.49326,6.18492 0.64362,0.90548 1.26402,2.77409 1.37865,4.15244 0.11462,1.37838 0.48835,2.67646 0.8305,2.88467 0.34215,0.2082 1.17933,1.43809 1.8604,2.73308 1.40265,2.667 0.68114,4.22287 -2.53765,5.47222 -1.07473,0.41716 -1.79031,1.35039 -1.78354,2.32604 0.005,0.89615 -0.53135,2.69675 -1.19456,4.00131 -0.96836,1.9048 -1.08931,3.82191 -0.61414,9.73402 0.55813,6.94464 0.48119,7.55492 -1.35726,10.76393 -1.07191,1.87103 -2.19567,4.58547 -2.49723,6.03205 -0.30156,1.4466 -1.40545,3.38593 -2.45306,4.30964 -1.04761,0.92371 -2.27673,3.20115 -2.73138,5.06097 -0.58901,2.40949 -1.6823,4.06893 -3.80337,5.77287 -1.63719,1.31524 -3.34957,3.53192 -3.80525,4.92594 -0.48001,1.46839 -2.00144,3.30554 -3.61685,4.36737 -1.5336,1.00807 -3.28785,3.05201 -3.89838,4.54212 -0.73793,1.80109 -2.09088,3.1774 -4.03608,4.1057 -2.31037,1.10257 -3.17458,2.14189 -4.10715,4.93933 -1.67771,5.03253 -2.8374,6.9105 -4.62653,7.49201 -2.08766,0.67855 -6.9936,10.74154 -7.51406,15.41277 -0.35833,3.21599 -0.18149,3.82198 1.44241,4.94271 2.45491,1.69426 6.08544,1.58288 8.85665,-0.27174 2.73731,-1.83194 9.42392,-9.70962 12.44382,-14.6604 1.21692,-1.99501 2.68159,-5.47521 3.25477,-7.73378 0.57321,-2.25856 1.71707,-5.7018 2.54193,-7.65163 0.82484,-1.94981 1.89745,-5.07041 2.38355,-6.93464 0.48608,-1.86423 1.58754,-4.10307 2.44767,-4.9752 0.86011,-0.87212 2.21178,-3.12661 3.00371,-5.01001 0.80963,-1.9255 2.14388,-3.65316 3.04829,-3.94714 1.06939,-0.34757 1.87601,-1.62756 2.40685,-3.81931 2.21866,-9.16077 2.58951,-10.09491 4.57803,-11.53172 1.30147,-0.94035 2.5608,-3.06158 3.38063,-5.69431 0.96022,-3.08359 1.98165,-4.63682 3.85376,-5.86014 1.74763,-1.14197 2.98059,-2.89816 3.92765,-5.59436 1.98013,-5.63739 3.3592,-7.34102 5.95702,-7.35901 1.96621,-0.0137 2.42626,-0.5323 4.0156,-4.5273 2.1858,-5.49435 6.4115,-10.46941 8.90718,-10.4867 1.27784,-0.009 2.44008,-1.03971 4.00588,-3.55303 1.21317,-1.94732 2.64729,-3.71356 3.18695,-3.92494 1.2346,-0.48358 3.34226,0.27485 3.3487,1.205 0.0108,1.56397 1.70425,0.4835 5.22638,-3.3346 3.50321,-3.7976 3.8834,-3.99965 6.71246,-3.56733 2.60263,0.39772 3.47451,0.0897 6.59838,-2.32982 3.83383,-2.9696 5.60875,-3.37909 8.07444,-1.86286 1.27055,0.7813 2.1584,0.63867 5.11042,-0.82088 4.28055,-2.11642 5.68526,-2.2046 7.61946,-0.47839 1.36885,1.22165 1.73227,1.21913 5.62913,-0.039 5.40008,-1.74343 6.44447,-1.70473 7.86327,0.29132 1.11613,1.57025 1.43897,1.60598 6.39436,0.70765 5.82784,-1.05651 7.86008,-0.71951 9.07,1.50411 0.66065,1.21414 1.67733,1.50619 5.15947,1.48208 3.89101,-0.027 4.57799,0.23066 6.6847,2.5066 1.62002,1.75014 3.50082,2.77333 6.0662,3.30016 3.4215,0.70261 3.75101,0.97588 4.12937,3.42481 0.43137,2.79189 0.93531,3.23907 5.7301,5.08451 2.12509,0.81792 2.95674,1.60592 2.96509,2.80944 0.007,0.91999 1.43539,3.10524 3.17561,4.8561 1.74024,1.75089 3.16933,3.94468 3.17577,4.87514 0.007,0.93043 1.07914,2.70027 2.38374,3.93295 1.59712,1.50905 2.38814,3.02713 2.42139,4.64682 0.0327,1.59605 0.97066,3.4345 2.78708,5.46313 1.50575,1.68164 2.73438,2.57365 2.73028,1.98225 -0.004,-0.59142 1.05973,-2.19175 2.36409,-3.55627 2.25042,-2.35424 2.32953,-2.65759 1.54908,-5.93938 -1.23685,-5.20092 -1.1113,-10.55931 0.27476,-11.72592 0.98102,-0.82573 1.86393,-0.58327 5.10925,1.40313 l 3.9233,2.40134 1.62323,-3.84642 c 3.3966,-8.04873 6.4101,-8.1643 10.18643,-0.39068 1.35894,2.79742 2.7073,4.95864 2.99639,4.80272 5.59215,-3.01625 13.28923,-6.2084 14.55532,-6.03644 2.73017,0.37078 2.41285,3.36186 -1.03401,9.74664 -3.78549,7.01204 -3.68518,7.29175 3.79717,10.58692 6.93003,3.05191 6.67422,5.45771 -0.86645,8.14909 -3.06399,1.09357 -3.26148,2.20202 -0.84972,4.76851 4.06154,4.32203 1.33393,7.68244 -6.00125,7.39355 -5.05659,-0.19916 -6.07852,0.32422 -6.07507,3.11132 0.005,4.02459 -2.94525,6.05078 -7.1145,4.88624 -3.94507,-1.10192 -4.47395,-0.94978 -5.80588,1.67016 -1.73976,3.42223 -1.68585,12.27317 0.13382,21.9602 1.16637,6.20946 1.57833,12.00725 1.67347,23.55345 0.1426,17.30212 -0.88003,23.87224 -5.93973,38.16239 -1.52865,4.31739 -3.60952,10.71133 -4.62414,14.2088 -1.01462,3.49747 -2.47098,7.86234 -3.23632,9.69974 -1.36765,3.28323 -1.35816,3.47279 0.55168,11.02097 2.30198,9.09803 1.98949,12.4989 -1.47082,16.00748 l -2.4092,2.99921 -8.20694,0.2469 c -6.98261,0.21006 -10.20454,1.03258 -12.58813,1.90308 -2.51471,0.91837 -9.97547,0.17374 -35.51711,0.3783 -28.74184,0.23011 -31.25566,0.19592 -33.01753,-1.00048 -1.07325,-0.7288 -3.16324,-3.34578 -3.62254,-3.94204 -0.54175,-0.70331 -3.58118,-1.30172 -8.6523,-1.70356 -4.29946,-0.34067 -9.7649,-1.13676 -12.14543,-1.76909 -6.38524,-1.69612 -15.16426,-1.16037 -17.50375,1.06815 -2.07623,1.97778 -5.86873,2.33332 -6.54243,0.61334 -0.38278,-0.97723 -0.92318,-0.90785 -3.55163,0.4561 -2.9395,1.52538 -6.15345,1.51148 -6.1641,-0.0267 -0.01,-1.40852 3.49309,-6.81227 6.75197,-10.41611 1.85212,-2.04815 3.75584,-4.59214 4.23048,-5.65327 1.15311,-2.57795 6.68856,-4.73371 10.42424,-4.05964 1.80256,0.32527 3.85615,0.0746 5.76221,-0.70343 1.91407,-0.78129 4.28638,-1.06878 6.70749,-0.81285 l 3.74594,0.39597 -0.53841,-5.01149 c -0.80304,-7.47446 0.56106,-15.68119 3.69451,-22.22705 1.47752,-3.08656 3.04833,-7.65317 3.49071,-10.14807 0.94316,-5.31933 5.96962,-15.96106 11.90756,-25.21003 2.31632,-3.6079 4.43898,-7.49366 4.71706,-8.63503 0.27807,-1.14136 1.33271,-3.08022 2.34357,-4.30859 2.52945,-3.07356 4.3826,-6.92576 4.37049,-9.08506 -0.005,-0.99348 0.63883,-5.34556 1.432,-9.6713 0.79318,-4.32576 1.67069,-10.0758 1.95002,-12.7779 l 0.50788,-4.91289 -2.27972,0.0158 c -6.54113,0.0454 -14.66641,9.79214 -23.56763,28.27099 -2.14716,4.45748 -3.89966,8.72103 -3.89444,9.47455 0.005,0.75353 -0.46577,2.07057 -1.04666,2.92676 -0.5809,0.8562 -3.00418,6.51886 -5.3851,12.58372 -2.38092,6.06483 -6.95422,16.45898 -10.16289,23.09808 -3.20867,6.63911 -5.83206,12.34484 -5.82974,12.67941 0.004,0.65998 -10.68097,16.9237 -15.37424,23.40007 -1.59243,2.19744 -4.73656,6.08963 -6.98699,8.64932 -2.2504,2.5597 -4.08987,4.90874 -4.08772,5.22008 0.002,0.31136 -3.17067,3.26731 -7.05072,6.56879 l -6.77592,5.86331 -11.64168,0.6392 c -6.34866,0.34859 -29.46876,0.37555 -51.28662,0.29412 z"
       style="display:inline;fill:#cccccc;fill-opacity:0.5;stroke:#999999;stroke-width:2.5;stroke-miterlimit:4;stroke-dasharray:none;stroke-opacity:1"
       inkscape:connector-curvature="0"
       sodipodi:nodetypes="cscssscssscsscscsssssscssssssssssssscsssscsscccssscssscscssssscscssscsssssssssssccsccsssssssscsscssssssscssssssssscsssscscssscscsscsscssssssscsssscscscscsscscssccsssssssssssscsscsssssssssscssssscsssssccssccscssscsscscscc" />
    <g
       id="g5026"
       transform="translate(-27.779195,99.500028)">
      <path
         style="display:inline;fill:none;fill-rule:evenodd;stroke:#000000;stroke-width:1.37357295px;stroke-linecap:butt;stroke-linejoin:miter;stroke-opacity:1"
         d="m 421.6188,234.01873 42.6662,42.6662"
         id="path4205"
         inkscape:connector-curvature="0" />
      <path
         style="display:inline;fill:none;fill-rule:evenodd;stroke:#000000;stroke-width:1.37357295px;stroke-linecap:butt;stroke-linejoin:miter;stroke-opacity:1"
         d="m 418.3668,237.27073 6.504,-6.504"
         id="path4207"
         inkscape:connector-curvature="0" />
      <path
         style="display:inline;fill:none;fill-rule:evenodd;stroke:#000000;stroke-width:1.37357295px;stroke-linecap:butt;stroke-linejoin:miter;stroke-opacity:1"
         d="m 461.033,279.93693 6.50399,-6.50399"
         id="path4207-6"
         inkscape:connector-curvature="0" />
      <path
         style="display:inline;fill:none;fill-rule:evenodd;stroke:#000000;stroke-width:1.37357295px;stroke-linecap:butt;stroke-linejoin:miter;stroke-opacity:1"
         d="m 432.97043,251.87437 6.50401,-6.50401"
         id="path4207-8"
         inkscape:connector-curvature="0" />
      <path
         style="display:inline;fill:none;fill-rule:evenodd;stroke:#000000;stroke-width:1.37357295px;stroke-linecap:butt;stroke-linejoin:miter;stroke-opacity:1"
         d="m 446.98435,265.88829 6.50401,-6.50401"
         id="path4207-5"
         inkscape:connector-curvature="0" />
    </g>
    <ellipse
       style="fill:none;fill-opacity:1;stroke:#000000;stroke-width:1;stroke-linecap:round;stroke-miterlimit:4;stroke-dasharray:none;stroke-dashoffset:0;stroke-opacity:1"
       id="path4159"
       cx="180.31223"
       cy="356.37738"
       rx="97.163078"
       ry="29.098316" />
    <path
       style="fill:none;fill-opacity:1;stroke:#000000;stroke-width:1;stroke-linecap:round;stroke-miterlimit:4;stroke-dasharray:none;stroke-dashoffset:0;stroke-opacity:1"
       d="m 83.197501,355.68256 c 0,-34.71811 18.533619,-66.79542 48.611569,-84.1351 30.07794,-17.33968 67.12449,-17.30388 97.16887,0.0939 30.04438,17.39778 48.51597,49.51084 48.44888,84.22889"
       id="path4163"
       inkscape:connector-curvature="0"
       sodipodi:nodetypes="cssc" />
    <path
       style="fill:none;fill-opacity:1;stroke:#000000;stroke-width:1;stroke-linecap:round;stroke-miterlimit:4;stroke-dasharray:none;stroke-dashoffset:0;stroke-opacity:1"
       d="m 172.88434,350.71276 18.39285,0 -3.53707,11.32922 -18.39285,0 z"
       id="rect4170"
       inkscape:connector-curvature="0"
       sodipodi:nodetypes="ccccc" />
    <path
       style="fill:none;fill-rule:evenodd;stroke:#000000;stroke-width:1px;stroke-linecap:butt;stroke-linejoin:miter;stroke-opacity:1;marker-end:url(#Arrow2Lend)"
       d="m 180.32184,356.37737 0,-92.93403"
       id="path4173"
       inkscape:connector-curvature="0" />
    <g
       id="layer6-0"
       transform="matrix(0.97451555,0,0,0.97451555,93.052561,69.524979)">
      <circle
         r="12.1875"
         cy="365.99908"
         cx="436.42035"
         id="path5674-1"
         style="display:inline;fill:#ffff00;fill-opacity:1;stroke:#fe9518;stroke-width:1.625;stroke-linecap:round;stroke-miterlimit:4;stroke-dasharray:none;stroke-opacity:1"
         transform="translate(7.3563763e-6,0)"
         d="m 448.60785,365.99908 a 12.1875,12.1875 0 0 1 -12.1875,12.1875 12.1875,12.1875 0 0 1 -12.1875,-12.1875 12.1875,12.1875 0 0 1 12.1875,-12.1875 12.1875,12.1875 0 0 1 12.1875,12.1875 z" />
      <path
         d="m 440.12808,351.76399 -3.6643,0 -3.6643,0 1.83215,-3.17338 1.83215,-3.17337 1.83215,3.17337 z"
         id="path8080-3"
         style="fill:#ffff00;fill-opacity:1;stroke:#fe9517;stroke-width:0.99148905;stroke-linecap:round;stroke-miterlimit:4;stroke-dasharray:none;stroke-dashoffset:0;stroke-opacity:1"
         inkscape:connector-curvature="0" />
      <path
         d="m 439.91678,380.27079 -3.6643,0 -3.6643,0 1.83215,3.17337 1.83215,3.17338 1.83215,-3.17338 z"
         id="path8080-5-5"
         style="fill:#ffff00;fill-opacity:1;stroke:#fe9517;stroke-width:0.99148905;stroke-linecap:round;stroke-miterlimit:4;stroke-dasharray:none;stroke-dashoffset:0;stroke-opacity:1"
         inkscape:connector-curvature="0" />
      <path
         d="m 422.03249,369.572 0,-3.6643 0,-3.6643 -3.17337,1.83215 -3.17338,1.83215 3.17338,1.83215 z"
         id="path8080-5-7-87"
         style="fill:#ffff00;fill-opacity:1;stroke:#fe9517;stroke-width:0.99148905;stroke-linecap:round;stroke-miterlimit:4;stroke-dasharray:none;stroke-dashoffset:0;stroke-opacity:1"
         inkscape:connector-curvature="0" />
      <path
         d="m 450.89741,369.71286 0,-3.6643 0,-3.6643 3.17337,1.83215 3.17338,1.83215 -3.17338,1.83215 z"
         id="path8080-5-7-8-8"
         style="fill:#ffff00;fill-opacity:1;stroke:#fe9517;stroke-width:0.99148905;stroke-linecap:round;stroke-miterlimit:4;stroke-dasharray:none;stroke-dashoffset:0;stroke-opacity:1"
         inkscape:connector-curvature="0" />
      <path
         d="m 457.00201,-348.10207 -3.6643,0 -3.6643,0 1.83215,-3.17337 1.83215,-3.17338 1.83215,3.17338 z"
         id="path8080-5-7-8-3-2"
         style="fill:#ffff00;fill-opacity:1;stroke:#fe9517;stroke-width:0.99148905;stroke-linecap:round;stroke-miterlimit:4;stroke-dasharray:none;stroke-dashoffset:0;stroke-opacity:1"
         inkscape:connector-curvature="0"
         transform="matrix(0.70710678,0.70710678,-0.70710678,0.70710678,-120.23976,281.74556)" />
      <path
         d="m 451.077,380.64661 -3.52434,-1.0031 -3.52433,-1.0031 2.63088,-2.55059 2.63087,-2.55062 0.89345,3.55372 z"
         id="path8080-5-7-8-3-4-1"
         style="fill:#ffff00;fill-opacity:1;stroke:#fe9517;stroke-width:0.99148905;stroke-linecap:round;stroke-miterlimit:4;stroke-dasharray:none;stroke-dashoffset:0;stroke-opacity:1"
         inkscape:connector-curvature="0" />
      <path
         transform="matrix(0.70710678,-0.70710677,0.70710677,0.70710678,351.91113,922.77583)"
         d="m 457.00201,-348.10207 -3.6643,0 -3.6643,0 1.83215,-3.17337 1.83215,-3.17338 1.83215,3.17338 z"
         id="path8080-5-7-8-3-4-9-5"
         style="fill:#ffff00;fill-opacity:1;stroke:#fe9517;stroke-width:0.99148905;stroke-linecap:round;stroke-miterlimit:4;stroke-dasharray:none;stroke-dashoffset:0;stroke-opacity:1"
         inkscape:connector-curvature="0" />
      <path
         d="m 428.35054,378.82909 -3.50737,1.06085 -3.50739,1.06084 0.83498,-3.56789 0.83497,-3.56791 2.67241,2.50707 z"
         id="path8080-5-7-8-3-4-9-8-8"
         style="fill:#ffff00;fill-opacity:1;stroke:#fe9517;stroke-width:0.99148905;stroke-linecap:round;stroke-miterlimit:4;stroke-dasharray:none;stroke-dashoffset:0;stroke-opacity:1"
         inkscape:connector-curvature="0" />
    </g>
    <path
       style="opacity:1;fill:none;fill-opacity:1;stroke:#000000;stroke-width:1.00000002;stroke-linecap:round;stroke-miterlimit:4;stroke-dasharray:none;stroke-dashoffset:0;stroke-opacity:1"
       d="m 652.49882,236.74833 c -0.54404,-13.41853 -37.01274,-24.21211 -81.82228,-24.2168 -44.80345,0.007 -81.26268,10.80009 -81.80665,24.2168"
       id="path4159-4"
       inkscape:connector-curvature="0"
       sodipodi:nodetypes="ccc" />
    <circle
       style="fill:none;fill-opacity:1;stroke:#000000;stroke-width:1.00000002;stroke-linecap:round;stroke-miterlimit:4;stroke-dasharray:none;stroke-dashoffset:0;stroke-opacity:1"
       id="path4317"
       cx="570.71429"
       cy="237.36218"
       r="81.910881" />
    <path
       style="fill:none;fill-opacity:1;stroke:#000000;stroke-width:1.00000002;stroke-linecap:round;stroke-miterlimit:4;stroke-dasharray:none;stroke-dashoffset:0;stroke-opacity:1"
       d="m 652.52875,237.89204 c -0.54404,13.41853 -37.01274,24.21211 -81.82228,24.21679 -44.80345,-0.007 -81.26269,-10.80008 -81.80665,-24.21679"
       id="path4159-4-2"
       inkscape:connector-curvature="0"
       sodipodi:nodetypes="ccc" />
  </g>
</svg>
