<?xml version="1.0" encoding="UTF-8" standalone="no"?>
<!-- Created with Inkscape (http://www.inkscape.org/) -->

<svg
   xmlns:dc="http://purl.org/dc/elements/1.1/"
   xmlns:cc="http://creativecommons.org/ns#"
   xmlns:rdf="http://www.w3.org/1999/02/22-rdf-syntax-ns#"
   xmlns:svg="http://www.w3.org/2000/svg"
   xmlns="http://www.w3.org/2000/svg"
   xmlns:sodipodi="http://sodipodi.sourceforge.net/DTD/sodipodi-0.dtd"
   xmlns:inkscape="http://www.inkscape.org/namespaces/inkscape"
   width="417.20459"
   height="156.42206"
   id="svg4201"
   version="1.1"
   inkscape:version="0.91pre2 r13516"
   viewBox="0 0 417.20459 156.42206"
   sodipodi:docname="conetracestep.svg">
  <defs
     id="defs4203">
    <marker
       inkscape:stockid="Arrow1Lend"
       orient="auto"
       refY="0"
       refX="0"
       id="Arrow1Lend"
       style="overflow:visible"
       inkscape:isstock="true">
      <path
         id="path4841"
         d="M 0,0 5,-5 -12.5,0 5,5 0,0 Z"
         style="fill:#000000;fill-opacity:1;fill-rule:evenodd;stroke:#000000;stroke-width:1pt;stroke-opacity:1"
         transform="matrix(-0.8,0,0,-0.8,-10,0)"
         inkscape:connector-curvature="0" />
    </marker>
  </defs>
  <sodipodi:namedview
     id="base"
     pagecolor="#ffffff"
     bordercolor="#666666"
     borderopacity="1.0"
     inkscape:pageopacity="0.0"
     inkscape:pageshadow="2"
     inkscape:zoom="2.8"
     inkscape:cx="195.68698"
     inkscape:cy="47.894728"
     inkscape:document-units="px"
     inkscape:current-layer="layer1"
     showgrid="false"
     showguides="true"
     inkscape:guide-bbox="true"
     inkscape:snap-midpoints="true"
     inkscape:snap-intersection-paths="false"
     inkscape:object-paths="false"
     inkscape:snap-bbox="true"
     inkscape:snap-bbox-midpoints="true"
     inkscape:window-width="2560"
     inkscape:window-height="1369"
     inkscape:window-x="1911"
     inkscape:window-y="-9"
     inkscape:window-maximized="1"
     fit-margin-top="0"
     fit-margin-left="0"
     fit-margin-right="0"
     fit-margin-bottom="0">
    <sodipodi:guide
       orientation="0,1"
       position="9.6699218,78.309265"
       id="guide4791" />
  </sodipodi:namedview>
  <metadata
     id="metadata4206">
    <rdf:RDF>
      <cc:Work
         rdf:about="">
        <dc:format>image/svg+xml</dc:format>
        <dc:type
           rdf:resource="http://purl.org/dc/dcmitype/StillImage" />
        <dc:title></dc:title>
      </cc:Work>
    </rdf:RDF>
  </metadata>
  <g
     inkscape:label="Layer 1"
     inkscape:groupmode="layer"
     id="layer1"
     transform="translate(-130.06222,-185.23154)">
    <g
       id="g5429-9-8-6"
       transform="matrix(-0.01630904,0.999867,-0.999867,-0.01630904,866.63856,-31.134606)"
       style="fill:#999999;stroke:#808080;stroke-width:2.5;stroke-miterlimit:4;stroke-dasharray:none;stroke-opacity:1">
      <g
         id="g5599"
         style="fill:#999999;stroke:#808080">
        <path
           style="color:#000000;font-style:normal;font-variant:normal;font-weight:normal;font-stretch:normal;font-size:medium;line-height:normal;font-family:sans-serif;text-indent:0;text-align:start;text-decoration:none;text-decoration-line:none;text-decoration-style:solid;text-decoration-color:#000000;letter-spacing:normal;word-spacing:normal;text-transform:none;direction:ltr;block-progression:tb;writing-mode:lr-tb;baseline-shift:baseline;text-anchor:start;clip-rule:nonzero;display:inline;overflow:visible;visibility:visible;opacity:1;isolation:auto;mix-blend-mode:normal;color-interpolation:sRGB;color-interpolation-filters:linearRGB;solid-color:#000000;solid-opacity:1;fill:#00ff00;fill-opacity:1;fill-rule:evenodd;stroke:#000000;stroke-width:0.80000001;stroke-linecap:butt;stroke-linejoin:miter;stroke-miterlimit:4;stroke-dasharray:none;stroke-dashoffset:0;stroke-opacity:1;color-rendering:auto;image-rendering:auto;shape-rendering:auto;text-rendering:auto;enable-background:accumulate"
           d="m 445.98633,629.92188 -1.7793,1.75585 3.81445,3.86524 -3.75195,3.70117 1.75391,1.7793 3.75195,-3.70117 3.74414,3.79492 1.77735,-1.75586 -3.74219,-3.79297 3.9082,-3.85547 -1.75586,-1.7793 -3.90625,3.85547 -3.81445,-3.86718 z"
           transform="matrix(-0.01630904,-0.99986701,0.99986701,-0.01630904,-327.07437,852.81476)"
           id="path5412-4-9-6"
           inkscape:connector-curvature="0" />
      </g>
    </g>
    <circle
       style="fill:none;fill-opacity:1;stroke:#000000;stroke-width:1.98962021;stroke-linecap:round;stroke-miterlimit:4;stroke-dasharray:none;stroke-dashoffset:0;stroke-opacity:0.58823529"
       id="path5652"
       cx="469.05579"
       cy="263.44257"
       r="77.216217"
       d="m 546.272,263.44257 a 77.216217,77.216217 0 0 1 -77.21621,77.21621 77.216217,77.216217 0 0 1 -77.21622,-77.21621 77.216217,77.216217 0 0 1 77.21622,-77.21622 77.216217,77.216217 0 0 1 77.21621,77.21622 z" />
    <path
       style="fill:none;fill-rule:evenodd;stroke:#000000;stroke-width:1.08857632px;stroke-linecap:butt;stroke-linejoin:miter;stroke-opacity:0.58823529"
       d="M 458.58566,186.19033 136.7857,263.41179 459.37501,340.91281"
       id="path4793"
       inkscape:connector-curvature="0"
       sodipodi:nodetypes="ccc" />
    <g
       id="g5429-9-8"
       transform="matrix(-0.01630904,0.999867,-0.999867,-0.01630904,637.96995,42.975748)"
       style="stroke-width:2.5;stroke-miterlimit:4;stroke-dasharray:none">
      <path
         inkscape:connector-curvature="0"
         id="path5412-4-9"
         d="m 223.39286,463.61219 9.46428,9.28572"
         style="fill:none;fill-rule:evenodd;stroke:#000000;stroke-width:2.5;stroke-linecap:butt;stroke-linejoin:miter;stroke-miterlimit:4;stroke-dasharray:none;stroke-opacity:1" />
      <path
         inkscape:connector-curvature="0"
         id="path5412-6-1-4"
         d="m 232.81107,463.63561 -9.28572,9.46428"
         style="fill:none;fill-rule:evenodd;stroke:#000000;stroke-width:2.5;stroke-linecap:butt;stroke-linejoin:miter;stroke-miterlimit:4;stroke-dasharray:none;stroke-opacity:1" />
    </g>
    <a
       id="a5341">
      <path
         sodipodi:nodetypes="cc"
         inkscape:connector-curvature="0"
         id="path4832"
         d="m 136.74106,263.34432 323.61608,0.0893"
         style="fill:none;fill-rule:evenodd;stroke:#000000;stroke-width:1px;stroke-linecap:butt;stroke-linejoin:miter;stroke-opacity:1;marker-end:url(#Arrow1Lend)" />
    </a>
    <g
       id="g5429-9-8-2"
       transform="matrix(-0.01630904,0.999867,-0.999867,-0.01630904,667.98956,42.934382)"
       style="stroke-width:2.5;stroke-miterlimit:4;stroke-dasharray:none">
      <path
         inkscape:connector-curvature="0"
         id="path5412-4-9-63"
         d="m 223.44077,464.01325 9.46428,9.28572"
         style="fill:none;fill-rule:evenodd;stroke:#000000;stroke-width:2.5;stroke-linecap:butt;stroke-linejoin:miter;stroke-miterlimit:4;stroke-dasharray:none;stroke-opacity:1" />
      <path
         inkscape:connector-curvature="0"
         id="path5412-6-1-4-9"
         d="m 232.85898,464.03667 -9.28572,9.46428"
         style="fill:none;fill-rule:evenodd;stroke:#000000;stroke-width:2.5;stroke-linecap:butt;stroke-linejoin:miter;stroke-miterlimit:4;stroke-dasharray:none;stroke-opacity:1" />
    </g>
    <g
       id="g5429-9-8-2-9"
       transform="matrix(-0.01630904,0.999867,-0.999867,-0.01630904,701.94325,42.845095)"
       style="stroke-width:2.5;stroke-miterlimit:4;stroke-dasharray:none">
      <path
         inkscape:connector-curvature="0"
         id="path5412-4-9-63-2"
         d="m 223.39286,463.61219 9.46428,9.28572"
         style="fill:none;fill-rule:evenodd;stroke:#000000;stroke-width:2.5;stroke-linecap:butt;stroke-linejoin:miter;stroke-miterlimit:4;stroke-dasharray:none;stroke-opacity:1" />
      <path
         inkscape:connector-curvature="0"
         id="path5412-6-1-4-9-7"
         d="m 232.81107,463.63561 -9.28572,9.46428"
         style="fill:none;fill-rule:evenodd;stroke:#000000;stroke-width:2.5;stroke-linecap:butt;stroke-linejoin:miter;stroke-miterlimit:4;stroke-dasharray:none;stroke-opacity:1" />
    </g>
    <circle
       style="fill:none;fill-opacity:0.50196078;stroke:#000000;stroke-width:0.5;stroke-linecap:round;stroke-miterlimit:4;stroke-dasharray:0.50000001, 1.00000002;stroke-dashoffset:0;stroke-opacity:0.58823529"
       id="path5114-9-7-2"
       cx="166.05667"
       cy="263.43362"
       r="6.6106224"
       d="m 172.66729,263.43362 a 6.6106224,6.6106224 0 0 1 -6.61062,6.61063 6.6106224,6.6106224 0 0 1 -6.61062,-6.61063 6.6106224,6.6106224 0 0 1 6.61062,-6.61062 6.6106224,6.6106224 0 0 1 6.61062,6.61062 z" />
    <circle
       style="fill:none;fill-opacity:0.50196078;stroke:#000000;stroke-width:0.5;stroke-linecap:round;stroke-miterlimit:4;stroke-dasharray:0.50000001, 1.00000002;stroke-dashoffset:0;stroke-opacity:0.58823529"
       id="path5114-9-7-2-9"
       cx="195.6745"
       cy="263.43362"
       r="13.48323"
       d="m 209.15773,263.43362 a 13.48323,13.48323 0 0 1 -13.48323,13.48323 13.48323,13.48323 0 0 1 -13.48323,-13.48323 13.48323,13.48323 0 0 1 13.48323,-13.48323 13.48323,13.48323 0 0 1 13.48323,13.48323 z" />
    <circle
       style="fill:none;fill-opacity:0.50196078;stroke:#000000;stroke-width:0.5;stroke-linecap:round;stroke-miterlimit:4;stroke-dasharray:0.50000001, 1.00000002;stroke-dashoffset:0;stroke-opacity:0.58823529"
       id="path5114-9-7-2-9-1"
       cx="229.9991"
       cy="263.34433"
       r="20.983442"
       d="m 250.98254,263.34433 a 20.983442,20.983442 0 0 1 -20.98344,20.98344 20.983442,20.983442 0 0 1 -20.98344,-20.98344 20.983442,20.983442 0 0 1 20.98344,-20.98344 20.983442,20.983442 0 0 1 20.98344,20.98344 z" />
    <circle
       style="fill:none;fill-opacity:0.50196078;stroke:#000000;stroke-width:0.5;stroke-linecap:round;stroke-miterlimit:4;stroke-dasharray:0.50000001, 1.00000002;stroke-dashoffset:0;stroke-opacity:0.58823529"
       id="path5114-9-7-2-9-1-1"
       cx="285.22318"
       cy="263.34433"
       r="34.086262"
       d="m 319.30944,263.34433 a 34.086262,34.086262 0 0 1 -34.08626,34.08626 34.086262,34.086262 0 0 1 -34.08627,-34.08626 34.086262,34.086262 0 0 1 34.08627,-34.08626 34.086262,34.086262 0 0 1 34.08626,34.08626 z" />
    <g
       id="g5429-9-8-2-9-0"
       transform="matrix(-0.01630904,0.999867,-0.999867,-0.01630904,757.16733,42.845095)"
       style="stroke-width:2.5;stroke-miterlimit:4;stroke-dasharray:none">
      <path
         inkscape:connector-curvature="0"
         id="path5412-4-9-63-2-7"
         d="m 223.39286,463.61219 9.46428,9.28572"
         style="fill:none;fill-rule:evenodd;stroke:#000000;stroke-width:2.5;stroke-linecap:butt;stroke-linejoin:miter;stroke-miterlimit:4;stroke-dasharray:none;stroke-opacity:1" />
      <path
         inkscape:connector-curvature="0"
         id="path5412-6-1-4-9-7-0"
         d="m 232.81107,463.63561 -9.28572,9.46428"
         style="fill:none;fill-rule:evenodd;stroke:#000000;stroke-width:2.5;stroke-linecap:butt;stroke-linejoin:miter;stroke-miterlimit:4;stroke-dasharray:none;stroke-opacity:1" />
    </g>
    <circle
       style="fill:none;fill-opacity:0.50196078;stroke:#000000;stroke-width:0.5;stroke-linecap:round;stroke-miterlimit:4;stroke-dasharray:0.50000001, 1.00000002;stroke-dashoffset:0;stroke-opacity:0.58823529"
       id="path5114-9-7-2-9-1-1-0"
       cx="374.5141"
       cy="263.34433"
       r="54.894344"
       d="m 429.40844,263.34433 a 54.894344,54.894344 0 0 1 -54.89434,54.89434 54.894344,54.894344 0 0 1 -54.89435,-54.89434 54.894344,54.894344 0 0 1 54.89435,-54.89434 54.894344,54.894344 0 0 1 54.89434,54.89434 z" />
    <g
       id="g5429-9-8-2-9-0-5"
       transform="matrix(-0.01630904,0.999867,-0.999867,-0.01630904,846.45825,42.845095)"
       style="stroke-width:2.5;stroke-miterlimit:4;stroke-dasharray:none">
      <path
         inkscape:connector-curvature="0"
         id="path5412-4-9-63-2-7-2"
         d="m 223.39286,463.61219 9.46428,9.28572"
         style="fill:none;fill-rule:evenodd;stroke:#000000;stroke-width:2.5;stroke-linecap:butt;stroke-linejoin:miter;stroke-miterlimit:4;stroke-dasharray:none;stroke-opacity:1" />
      <path
         inkscape:connector-curvature="0"
         id="path5412-6-1-4-9-7-0-2"
         d="m 232.81107,463.63561 -9.28572,9.46428"
         style="fill:none;fill-rule:evenodd;stroke:#000000;stroke-width:2.5;stroke-linecap:butt;stroke-linejoin:miter;stroke-miterlimit:4;stroke-dasharray:none;stroke-opacity:1" />
    </g>
    <circle
       style="fill:#999999;fill-opacity:1;stroke:#000000;stroke-width:1;stroke-linecap:round;stroke-miterlimit:4;stroke-dasharray:none;stroke-dashoffset:0;stroke-opacity:1"
       id="path5401"
       cx="137.1282"
       cy="263.50699"
       r="6.5659914"
       d="m 143.6942,263.50699 a 6.5659914,6.5659914 0 0 1 -6.566,6.56599 6.5659914,6.5659914 0 0 1 -6.56599,-6.56599 6.5659914,6.5659914 0 0 1 6.56599,-6.56599 6.5659914,6.5659914 0 0 1 6.566,6.56599 z" />
    <path
       style="fill:none;fill-rule:evenodd;stroke:#000000;stroke-width:1px;stroke-linecap:butt;stroke-linejoin:miter;stroke-opacity:1"
       d="M 374.54498,263.30296 360,209.86218"
       id="path5521"
       inkscape:connector-curvature="0" />
    <path
       style="fill:none;fill-rule:evenodd;stroke:#000000;stroke-width:1px;stroke-linecap:butt;stroke-linejoin:miter;stroke-opacity:1"
       d="m 285.14067,263.34433 -8.35496,-33.12501"
       id="path5523"
       inkscape:connector-curvature="0" />
    <path
       style="fill:none;fill-rule:evenodd;stroke:#000000;stroke-width:1px;stroke-linecap:butt;stroke-linejoin:miter;stroke-opacity:1"
       d="m 230.02998,263.30296 -5.56569,-21.29792"
       id="path5525"
       inkscape:connector-curvature="0" />
    <path
       style="fill:none;fill-rule:evenodd;stroke:#000000;stroke-width:1px;stroke-linecap:butt;stroke-linejoin:miter;stroke-opacity:1"
       d="m 195.6745,263.43361 -3.71021,-13.21429"
       id="path5527"
       inkscape:connector-curvature="0" />
  </g>
</svg>
