<?xml version="1.0" encoding="UTF-8" standalone="no"?>
<!-- Created with Inkscape (http://www.inkscape.org/) -->

<svg
   xmlns:dc="http://purl.org/dc/elements/1.1/"
   xmlns:cc="http://creativecommons.org/ns#"
   xmlns:rdf="http://www.w3.org/1999/02/22-rdf-syntax-ns#"
   xmlns:svg="http://www.w3.org/2000/svg"
   xmlns="http://www.w3.org/2000/svg"
   xmlns:sodipodi="http://sodipodi.sourceforge.net/DTD/sodipodi-0.dtd"
   xmlns:inkscape="http://www.inkscape.org/namespaces/inkscape"
   width="165.46657"
   height="164.86656"
   id="svg4305"
   version="1.1"
   inkscape:version="0.91pre2 r13516"
   viewBox="0 0 165.46656 164.86657"
   sodipodi:docname="flux.svg">
  <defs
     id="defs4307">
    <marker
       inkscape:stockid="Arrow2Mend"
       orient="auto"
       refY="0"
       refX="0"
       id="Arrow2Mend"
       style="overflow:visible"
       inkscape:isstock="true">
      <path
         id="path4488"
         style="fill:#000000;fill-opacity:1;fill-rule:evenodd;stroke:#000000;stroke-width:0.625;stroke-linejoin:round;stroke-opacity:1"
         d="M 8.7185878,4.0337352 -2.2072895,0.01601326 8.7185884,-4.0017078 c -1.7454984,2.3720609 -1.7354408,5.6174519 -6e-7,8.035443 z"
         transform="scale(-0.6,-0.6)"
         inkscape:connector-curvature="0" />
    </marker>
    <marker
       inkscape:stockid="Arrow2Lend"
       orient="auto"
       refY="0"
       refX="0"
       id="marker7670"
       style="overflow:visible"
       inkscape:isstock="true">
      <path
         id="path7672"
         style="fill:#000000;fill-opacity:1;fill-rule:evenodd;stroke:#000000;stroke-width:0.625;stroke-linejoin:round;stroke-opacity:1"
         d="M 8.7185878,4.0337352 -2.2072895,0.01601326 8.7185884,-4.0017078 c -1.7454984,2.3720609 -1.7354408,5.6174519 -6e-7,8.035443 z"
         transform="matrix(-1.1,0,0,-1.1,-1.1,0)"
         inkscape:connector-curvature="0" />
    </marker>
    <marker
       inkscape:stockid="Arrow1Mstart"
       orient="auto"
       refY="0"
       refX="0"
       id="marker7553"
       style="overflow:visible"
       inkscape:isstock="true">
      <path
         id="path4467"
         d="M 0,0 5,-5 -12.5,0 5,5 0,0 Z"
         style="fill:#000000;fill-opacity:1;fill-rule:evenodd;stroke:#000000;stroke-width:1pt;stroke-opacity:1"
         transform="matrix(0.4,0,0,0.4,4,0)"
         inkscape:connector-curvature="0" />
    </marker>
    <marker
       inkscape:stockid="Arrow2Lend"
       orient="auto"
       refY="0"
       refX="0"
       id="marker4717"
       style="overflow:visible"
       inkscape:isstock="true">
      <path
         id="path4482"
         style="fill:#000000;fill-opacity:1;fill-rule:evenodd;stroke:#000000;stroke-width:0.625;stroke-linejoin:round;stroke-opacity:1"
         d="M 8.7185878,4.0337352 -2.2072895,0.01601326 8.7185884,-4.0017078 c -1.7454984,2.3720609 -1.7354408,5.6174519 -6e-7,8.035443 z"
         transform="matrix(-1.1,0,0,-1.1,-1.1,0)"
         inkscape:connector-curvature="0" />
    </marker>
    <marker
       inkscape:stockid="Arrow2Mstart"
       orient="auto"
       refY="0"
       refX="0"
       id="Arrow2Mstart"
       style="overflow:visible"
       inkscape:isstock="true">
      <path
         id="path4372"
         style="fill:#000000;fill-opacity:1;fill-rule:evenodd;stroke:#000000;stroke-width:0.625;stroke-linejoin:round;stroke-opacity:1"
         d="M 8.7185878,4.0337352 -2.2072895,0.01601326 8.7185884,-4.0017078 c -1.7454984,2.3720609 -1.7354408,5.6174519 -6e-7,8.035443 z"
         transform="scale(0.6,0.6)"
         inkscape:connector-curvature="0" />
    </marker>
    <marker
       inkscape:stockid="Arrow1Mstart"
       orient="auto"
       refY="0"
       refX="0"
       id="Arrow1Mstart"
       style="overflow:visible"
       inkscape:isstock="true">
      <path
         id="path4354"
         d="M 0,0 5,-5 -12.5,0 5,5 0,0 Z"
         style="fill:#000000;fill-opacity:1;fill-rule:evenodd;stroke:#000000;stroke-width:1pt;stroke-opacity:1"
         transform="matrix(0.4,0,0,0.4,4,0)"
         inkscape:connector-curvature="0" />
    </marker>
    <marker
       inkscape:isstock="true"
       style="overflow:visible"
       id="marker4286"
       refX="0"
       refY="0"
       orient="auto"
       inkscape:stockid="Arrow2Mend">
      <path
         inkscape:connector-curvature="0"
         transform="scale(-0.6,-0.6)"
         d="M 8.7185878,4.0337352 -2.2072895,0.01601326 8.7185884,-4.0017078 c -1.7454984,2.3720609 -1.7354408,5.6174519 -6e-7,8.035443 z"
         style="fill:#ffa844;fill-opacity:1;fill-rule:evenodd;stroke:#ffa844;stroke-width:0.625;stroke-linejoin:round;stroke-opacity:1"
         id="path4288" />
    </marker>
    <marker
       inkscape:stockid="Arrow2Lend"
       orient="auto"
       refY="0"
       refX="0"
       id="Arrow2Lend"
       style="overflow:visible"
       inkscape:isstock="true">
      <path
         id="path4200"
         style="fill:#000000;fill-opacity:1;fill-rule:evenodd;stroke:#000000;stroke-width:0.625;stroke-linejoin:round;stroke-opacity:1"
         d="M 8.7185878,4.0337352 -2.2072895,0.01601326 8.7185884,-4.0017078 c -1.7454984,2.3720609 -1.7354408,5.6174519 -6e-7,8.035443 z"
         transform="matrix(-1.1,0,0,-1.1,-1.1,0)"
         inkscape:connector-curvature="0" />
    </marker>
    <marker
       inkscape:stockid="Arrow1Lend"
       orient="auto"
       refY="0"
       refX="0"
       id="Arrow1Lend"
       style="overflow:visible"
       inkscape:isstock="true">
      <path
         id="path4182"
         d="M 0,0 5,-5 -12.5,0 5,5 0,0 Z"
         style="fill:#000000;fill-opacity:1;fill-rule:evenodd;stroke:#000000;stroke-width:1pt;stroke-opacity:1"
         transform="matrix(-0.8,0,0,-0.8,-10,0)"
         inkscape:connector-curvature="0" />
    </marker>
    <marker
       inkscape:isstock="true"
       style="overflow:visible"
       id="marker4286-4"
       refX="0"
       refY="0"
       orient="auto"
       inkscape:stockid="Arrow2Mend">
      <path
         inkscape:connector-curvature="0"
         transform="scale(-0.6,-0.6)"
         d="M 8.7185878,4.0337352 -2.2072895,0.01601326 8.7185884,-4.0017078 c -1.7454984,2.3720609 -1.7354408,5.6174519 -6e-7,8.035443 z"
         style="fill:#ff9821;fill-opacity:1;fill-rule:evenodd;stroke:#ff9821;stroke-width:0.625;stroke-linejoin:round;stroke-opacity:1"
         id="path4288-1" />
    </marker>
    <marker
       inkscape:isstock="true"
       style="overflow:visible"
       id="marker4286-1"
       refX="0"
       refY="0"
       orient="auto"
       inkscape:stockid="Arrow2Mend">
      <path
         inkscape:connector-curvature="0"
         transform="scale(-0.6,-0.6)"
         d="M 8.7185878,4.0337352 -2.2072895,0.01601326 8.7185884,-4.0017078 c -1.7454984,2.3720609 -1.7354408,5.6174519 -6e-7,8.035443 z"
         style="fill:#ffa844;fill-opacity:1;fill-rule:evenodd;stroke:#ffa844;stroke-width:0.625;stroke-linejoin:round;stroke-opacity:1"
         id="path4288-19" />
    </marker>
    <marker
       inkscape:isstock="true"
       style="overflow:visible"
       id="marker4286-9"
       refX="0"
       refY="0"
       orient="auto"
       inkscape:stockid="Arrow2Mend">
      <path
         inkscape:connector-curvature="0"
         transform="scale(-0.6,-0.6)"
         d="M 8.7185878,4.0337352 -2.2072895,0.01601326 8.7185884,-4.0017078 c -1.7454984,2.3720609 -1.7354408,5.6174519 -6e-7,8.035443 z"
         style="fill:#ffa844;fill-opacity:1;fill-rule:evenodd;stroke:#ffa844;stroke-width:0.625;stroke-linejoin:round;stroke-opacity:1"
         id="path4288-6" />
    </marker>
    <marker
       inkscape:isstock="true"
       style="overflow:visible"
       id="marker4286-9-7"
       refX="0"
       refY="0"
       orient="auto"
       inkscape:stockid="Arrow2Mend">
      <path
         inkscape:connector-curvature="0"
         transform="scale(-0.6,-0.6)"
         d="M 8.7185878,4.0337352 -2.2072895,0.01601326 8.7185884,-4.0017078 c -1.7454984,2.3720609 -1.7354408,5.6174519 -6e-7,8.035443 z"
         style="fill:#ffa844;fill-opacity:1;fill-rule:evenodd;stroke:#ffa844;stroke-width:0.625;stroke-linejoin:round;stroke-opacity:1"
         id="path4288-6-0" />
    </marker>
    <marker
       inkscape:isstock="true"
       style="overflow:visible"
       id="marker4286-9-0"
       refX="0"
       refY="0"
       orient="auto"
       inkscape:stockid="Arrow2Mend">
      <path
         inkscape:connector-curvature="0"
         transform="scale(-0.6,-0.6)"
         d="M 8.7185878,4.0337352 -2.2072895,0.01601326 8.7185884,-4.0017078 c -1.7454984,2.3720609 -1.7354408,5.6174519 -6e-7,8.035443 z"
         style="fill:#ffa844;fill-opacity:1;fill-rule:evenodd;stroke:#ffa844;stroke-width:0.625;stroke-linejoin:round;stroke-opacity:1"
         id="path4288-6-3" />
    </marker>
    <marker
       inkscape:isstock="true"
       style="overflow:visible"
       id="marker4286-9-1"
       refX="0"
       refY="0"
       orient="auto"
       inkscape:stockid="Arrow2Mend">
      <path
         inkscape:connector-curvature="0"
         transform="scale(-0.6,-0.6)"
         d="M 8.7185878,4.0337352 -2.2072895,0.01601326 8.7185884,-4.0017078 c -1.7454984,2.3720609 -1.7354408,5.6174519 -6e-7,8.035443 z"
         style="fill:#ffa844;fill-opacity:1;fill-rule:evenodd;stroke:#ffa844;stroke-width:0.625;stroke-linejoin:round;stroke-opacity:1"
         id="path4288-6-1" />
    </marker>
    <marker
       inkscape:isstock="true"
       style="overflow:visible"
       id="marker4286-9-70"
       refX="0"
       refY="0"
       orient="auto"
       inkscape:stockid="Arrow2Mend">
      <path
         inkscape:connector-curvature="0"
         transform="scale(-0.6,-0.6)"
         d="M 8.7185878,4.0337352 -2.2072895,0.01601326 8.7185884,-4.0017078 c -1.7454984,2.3720609 -1.7354408,5.6174519 -6e-7,8.035443 z"
         style="fill:#ffa844;fill-opacity:1;fill-rule:evenodd;stroke:#ffa844;stroke-width:0.625;stroke-linejoin:round;stroke-opacity:1"
         id="path4288-6-6" />
    </marker>
    <marker
       inkscape:isstock="true"
       style="overflow:visible"
       id="marker4286-9-8"
       refX="0"
       refY="0"
       orient="auto"
       inkscape:stockid="Arrow2Mend">
      <path
         inkscape:connector-curvature="0"
         transform="scale(-0.6,-0.6)"
         d="M 8.7185878,4.0337352 -2.2072895,0.01601326 8.7185884,-4.0017078 c -1.7454984,2.3720609 -1.7354408,5.6174519 -6e-7,8.035443 z"
         style="fill:#ffa844;fill-opacity:1;fill-rule:evenodd;stroke:#ffa844;stroke-width:0.625;stroke-linejoin:round;stroke-opacity:1"
         id="path4288-6-8" />
    </marker>
  </defs>
  <sodipodi:namedview
     id="base"
     pagecolor="#ffffff"
     bordercolor="#666666"
     borderopacity="1.0"
     inkscape:pageopacity="0.0"
     inkscape:pageshadow="2"
     inkscape:zoom="3.959798"
     inkscape:cx="-25.858378"
     inkscape:cy="46.554875"
     inkscape:document-units="px"
     inkscape:current-layer="layer1"
     showgrid="false"
     inkscape:window-width="2560"
     inkscape:window-height="1369"
     inkscape:window-x="1911"
     inkscape:window-y="-9"
     inkscape:window-maximized="1"
     inkscape:snap-bbox="true"
     inkscape:snap-bbox-midpoints="false"
     inkscape:snap-bbox-edge-midpoints="true"
     inkscape:object-nodes="true"
     inkscape:snap-global="true"
     fit-margin-top="0"
     fit-margin-left="0"
     fit-margin-right="0.6"
     fit-margin-bottom="0"
     inkscape:snap-nodes="false" />
  <metadata
     id="metadata4310">
    <rdf:RDF>
      <cc:Work
         rdf:about="">
        <dc:format>image/svg+xml</dc:format>
        <dc:type
           rdf:resource="http://purl.org/dc/dcmitype/StillImage" />
        <dc:title></dc:title>
      </cc:Work>
    </rdf:RDF>
  </metadata>
  <g
     inkscape:label="Layer 1"
     inkscape:groupmode="layer"
     id="layer1"
     transform="translate(-250.44264,-279.48037)">
    <path
       style="fill:#64cbff;fill-opacity:0.85340315;stroke:#000000;stroke-width:0.61152172;stroke-linecap:round;stroke-miterlimit:4;stroke-dasharray:3.66913061, 3.66913060999999980;stroke-dashoffset:0;stroke-opacity:1"
       d="M 82.568359 19.046875 A 63.439988 63.439988 0 0 0 19.128906 82.486328 A 63.439988 63.439988 0 0 0 82.568359 145.92578 A 63.439988 63.439988 0 0 0 146.00781 82.486328 A 63.439988 63.439988 0 0 0 82.568359 19.046875 z M 82.867188 37.355469 A 44.703081 44.703081 0 0 1 127.57031 82.058594 A 44.703081 44.703081 0 0 1 82.867188 126.76172 A 44.703081 44.703081 0 0 1 38.164062 82.058594 A 44.703081 44.703081 0 0 1 82.867188 37.355469 z "
       transform="translate(250.44263,279.48037)"
       id="path4426" />
    <g
       id="g8964"
       style="stroke:#fe9518;stroke-opacity:1;stroke-width:0.81763245;stroke-miterlimit:4;stroke-dasharray:none"
       transform="matrix(1.2230435,0,0,1.2230435,-76.252263,-83.214813)">
      <path
         sodipodi:nodetypes="cc"
         inkscape:connector-curvature="0"
         id="path4443-1"
         d="m 334.6798,364.06531 -64.19328,0"
         style="fill:none;fill-rule:evenodd;stroke:#fe9518;stroke-width:0.81763245;stroke-linecap:butt;stroke-linejoin:miter;stroke-miterlimit:4;stroke-dasharray:none;stroke-opacity:1;marker-end:url(#marker4286-9)" />
      <path
         sodipodi:nodetypes="cc"
         inkscape:connector-curvature="0"
         id="path4443-1-4"
         d="m 334.61744,363.9946 0,64.19328"
         style="fill:none;fill-rule:evenodd;stroke:#fe9518;stroke-width:0.81763245;stroke-linecap:butt;stroke-linejoin:miter;stroke-miterlimit:4;stroke-dasharray:none;stroke-opacity:1;marker-end:url(#marker4286-9-7)" />
      <path
         sodipodi:nodetypes="cc"
         inkscape:connector-curvature="0"
         id="path4443-1-9"
         d="m 334.67019,364.07492 45.3915,45.3915"
         style="fill:none;fill-rule:evenodd;stroke:#fe9518;stroke-width:0.81763245;stroke-linecap:butt;stroke-linejoin:miter;stroke-miterlimit:4;stroke-dasharray:none;stroke-opacity:1;marker-end:url(#marker4286-9-1)" />
      <path
         sodipodi:nodetypes="cc"
         inkscape:connector-curvature="0"
         id="path4443-1-7"
         d="m 334.6798,364.06531 45.3915,-45.3915"
         style="fill:none;fill-rule:evenodd;stroke:#fe9518;stroke-width:0.81763245;stroke-linecap:butt;stroke-linejoin:miter;stroke-miterlimit:4;stroke-dasharray:none;stroke-opacity:1;marker-end:url(#marker4286-9-0)" />
      <path
         sodipodi:nodetypes="cc"
         inkscape:connector-curvature="0"
         id="path4443-1-2"
         d="m 334.61744,363.9946 -45.3915,45.3915"
         style="fill:none;fill-rule:evenodd;stroke:#fe9518;stroke-width:0.81763245;stroke-linecap:butt;stroke-linejoin:miter;stroke-miterlimit:4;stroke-dasharray:none;stroke-opacity:1;marker-end:url(#marker4286-9-70)" />
      <path
         sodipodi:nodetypes="cc"
         inkscape:connector-curvature="0"
         id="path4443"
         d="m 334.6798,364.06531 0,-64.19328"
         style="fill:none;fill-rule:evenodd;stroke:#fe9518;stroke-width:0.81763245;stroke-linecap:butt;stroke-linejoin:miter;stroke-miterlimit:4;stroke-dasharray:none;stroke-opacity:1;marker-end:url(#marker4286)" />
      <path
         sodipodi:nodetypes="cc"
         inkscape:connector-curvature="0"
         id="path4443-1-0"
         d="m 334.61744,363.9946 -45.3915,-45.3915"
         style="fill:none;fill-rule:evenodd;stroke:#fe9518;stroke-width:0.81763245;stroke-linecap:butt;stroke-linejoin:miter;stroke-miterlimit:4;stroke-dasharray:none;stroke-opacity:1;marker-end:url(#marker4286-9-8)" />
      <path
         sodipodi:nodetypes="cc"
         inkscape:connector-curvature="0"
         id="path4443-3"
         d="m 334.67019,364.07492 64.19328,0"
         style="fill:none;fill-rule:evenodd;stroke:#fe9518;stroke-width:0.81763245;stroke-linecap:butt;stroke-linejoin:miter;stroke-miterlimit:4;stroke-dasharray:none;stroke-opacity:1;marker-end:url(#marker4286-1)" />
    </g>
    <path
       style="fill:none;fill-rule:evenodd;stroke:#000000;stroke-width:1.00000005;stroke-linecap:butt;stroke-linejoin:miter;stroke-opacity:1;marker-start:url(#Arrow2Mstart);marker-end:url(#Arrow2Mend);stroke-miterlimit:4;stroke-dasharray:none"
       d="m 353.09227,321.44944 9.40861,-15.75916"
       id="path7539"
       inkscape:connector-curvature="0"
       sodipodi:nodetypes="cc" />
    <text
       xml:space="preserve"
       style="font-style:normal;font-weight:normal;font-size:48.92173767px;line-height:125%;font-family:sans-serif;letter-spacing:0px;word-spacing:0px;fill:#000000;fill-opacity:1;stroke:none;stroke-width:1px;stroke-linecap:butt;stroke-linejoin:miter;stroke-opacity:1"
       x="356.2308"
       y="299.61401"
       id="text8678"
       sodipodi:linespacing="125%"><tspan
         sodipodi:role="line"
         id="tspan8680"
         x="356.2308"
         y="299.61401"
         style="font-size:12.23043442px">$\Delta t$</tspan></text>
    <g
       id="layer6-0"
       transform="matrix(0.77568174,0,0,0.77568174,-5.4821997,78.151645)">
      <circle
         r="12.1875"
         cy="365.99908"
         cx="436.42035"
         id="path5674-1"
         style="display:inline;fill:#ffff00;fill-opacity:1;stroke:#fe9518;stroke-width:1.625;stroke-linecap:round;stroke-miterlimit:4;stroke-dasharray:none;stroke-opacity:1"
         transform="translate(7.3563763e-6,0)"
         d="m 448.60785,365.99908 a 12.1875,12.1875 0 0 1 -12.1875,12.1875 12.1875,12.1875 0 0 1 -12.1875,-12.1875 12.1875,12.1875 0 0 1 12.1875,-12.1875 12.1875,12.1875 0 0 1 12.1875,12.1875 z" />
      <path
         d="m 440.12808,351.76399 -3.6643,0 -3.6643,0 1.83215,-3.17338 1.83215,-3.17337 1.83215,3.17337 z"
         id="path8080-3"
         style="fill:#ffff00;fill-opacity:1;stroke:#fe9517;stroke-width:0.99148905;stroke-linecap:round;stroke-miterlimit:4;stroke-dasharray:none;stroke-dashoffset:0;stroke-opacity:1"
         inkscape:connector-curvature="0" />
      <path
         d="m 439.91678,380.27079 -3.6643,0 -3.6643,0 1.83215,3.17337 1.83215,3.17338 1.83215,-3.17338 z"
         id="path8080-5-5"
         style="fill:#ffff00;fill-opacity:1;stroke:#fe9517;stroke-width:0.99148905;stroke-linecap:round;stroke-miterlimit:4;stroke-dasharray:none;stroke-dashoffset:0;stroke-opacity:1"
         inkscape:connector-curvature="0" />
      <path
         d="m 422.03249,369.572 0,-3.6643 0,-3.6643 -3.17337,1.83215 -3.17338,1.83215 3.17338,1.83215 z"
         id="path8080-5-7-87"
         style="fill:#ffff00;fill-opacity:1;stroke:#fe9517;stroke-width:0.99148905;stroke-linecap:round;stroke-miterlimit:4;stroke-dasharray:none;stroke-dashoffset:0;stroke-opacity:1"
         inkscape:connector-curvature="0" />
      <path
         d="m 450.89741,369.71286 0,-3.6643 0,-3.6643 3.17337,1.83215 3.17338,1.83215 -3.17338,1.83215 z"
         id="path8080-5-7-8-8"
         style="fill:#ffff00;fill-opacity:1;stroke:#fe9517;stroke-width:0.99148905;stroke-linecap:round;stroke-miterlimit:4;stroke-dasharray:none;stroke-dashoffset:0;stroke-opacity:1"
         inkscape:connector-curvature="0" />
      <path
         d="m 457.00201,-348.10207 -3.6643,0 -3.6643,0 1.83215,-3.17337 1.83215,-3.17338 1.83215,3.17338 z"
         id="path8080-5-7-8-3-2"
         style="fill:#ffff00;fill-opacity:1;stroke:#fe9517;stroke-width:0.99148905;stroke-linecap:round;stroke-miterlimit:4;stroke-dasharray:none;stroke-dashoffset:0;stroke-opacity:1"
         inkscape:connector-curvature="0"
         transform="matrix(0.70710678,0.70710678,-0.70710678,0.70710678,-120.23976,281.74556)" />
      <path
         d="m 451.077,380.64661 -3.52434,-1.0031 -3.52433,-1.0031 2.63088,-2.55059 2.63087,-2.55062 0.89345,3.55372 z"
         id="path8080-5-7-8-3-4-1"
         style="fill:#ffff00;fill-opacity:1;stroke:#fe9517;stroke-width:0.99148905;stroke-linecap:round;stroke-miterlimit:4;stroke-dasharray:none;stroke-dashoffset:0;stroke-opacity:1"
         inkscape:connector-curvature="0" />
      <path
         transform="matrix(0.70710678,-0.70710677,0.70710677,0.70710678,351.91113,922.77583)"
         d="m 457.00201,-348.10207 -3.6643,0 -3.6643,0 1.83215,-3.17337 1.83215,-3.17338 1.83215,3.17338 z"
         id="path8080-5-7-8-3-4-9-5"
         style="fill:#ffff00;fill-opacity:1;stroke:#fe9517;stroke-width:0.99148905;stroke-linecap:round;stroke-miterlimit:4;stroke-dasharray:none;stroke-dashoffset:0;stroke-opacity:1"
         inkscape:connector-curvature="0" />
      <path
         d="m 428.35054,378.82909 -3.50737,1.06085 -3.50739,1.06084 0.83498,-3.56789 0.83497,-3.56791 2.67241,2.50707 z"
         id="path8080-5-7-8-3-4-9-8-8"
         style="fill:#ffff00;fill-opacity:1;stroke:#fe9517;stroke-width:0.99148905;stroke-linecap:round;stroke-miterlimit:4;stroke-dasharray:none;stroke-dashoffset:0;stroke-opacity:1"
         inkscape:connector-curvature="0" />
    </g>
  </g>
</svg>
