<?xml version="1.0" encoding="UTF-8" standalone="no"?>
<!-- Created with Inkscape (http://www.inkscape.org/) -->

<svg
   xmlns:dc="http://purl.org/dc/elements/1.1/"
   xmlns:cc="http://creativecommons.org/ns#"
   xmlns:rdf="http://www.w3.org/1999/02/22-rdf-syntax-ns#"
   xmlns:svg="http://www.w3.org/2000/svg"
   xmlns="http://www.w3.org/2000/svg"
   xmlns:sodipodi="http://sodipodi.sourceforge.net/DTD/sodipodi-0.dtd"
   xmlns:inkscape="http://www.inkscape.org/namespaces/inkscape"
   width="165.46657"
   height="164.86656"
   id="svg4305"
   version="1.1"
   inkscape:version="0.91pre2 r13516"
   viewBox="0 0 165.46656 164.86657"
   sodipodi:docname="intensity.svg">
  <defs
     id="defs4307">
    <marker
       inkscape:stockid="Arrow2Mend"
       orient="auto"
       refY="0"
       refX="0"
       id="Arrow2Mend"
       style="overflow:visible"
       inkscape:isstock="true">
      <path
         id="path4488"
         style="fill:#000000;fill-opacity:1;fill-rule:evenodd;stroke:#000000;stroke-width:0.625;stroke-linejoin:round;stroke-opacity:1"
         d="M 8.7185878,4.0337352 -2.2072895,0.01601326 8.7185884,-4.0017078 c -1.7454984,2.3720609 -1.7354408,5.6174519 -6e-7,8.035443 z"
         transform="scale(-0.6,-0.6)"
         inkscape:connector-curvature="0" />
    </marker>
    <marker
       inkscape:stockid="Arrow2Lend"
       orient="auto"
       refY="0"
       refX="0"
       id="marker7670"
       style="overflow:visible"
       inkscape:isstock="true">
      <path
         id="path7672"
         style="fill:#000000;fill-opacity:1;fill-rule:evenodd;stroke:#000000;stroke-width:0.625;stroke-linejoin:round;stroke-opacity:1"
         d="M 8.7185878,4.0337352 -2.2072895,0.01601326 8.7185884,-4.0017078 c -1.7454984,2.3720609 -1.7354408,5.6174519 -6e-7,8.035443 z"
         transform="matrix(-1.1,0,0,-1.1,-1.1,0)"
         inkscape:connector-curvature="0" />
    </marker>
    <marker
       inkscape:stockid="Arrow1Mstart"
       orient="auto"
       refY="0"
       refX="0"
       id="marker7553"
       style="overflow:visible"
       inkscape:isstock="true">
      <path
         id="path4467"
         d="M 0,0 5,-5 -12.5,0 5,5 0,0 Z"
         style="fill:#000000;fill-opacity:1;fill-rule:evenodd;stroke:#000000;stroke-width:1pt;stroke-opacity:1"
         transform="matrix(0.4,0,0,0.4,4,0)"
         inkscape:connector-curvature="0" />
    </marker>
    <marker
       inkscape:stockid="Arrow2Lend"
       orient="auto"
       refY="0"
       refX="0"
       id="marker4717"
       style="overflow:visible"
       inkscape:isstock="true">
      <path
         id="path4482"
         style="fill:#000000;fill-opacity:1;fill-rule:evenodd;stroke:#000000;stroke-width:0.625;stroke-linejoin:round;stroke-opacity:1"
         d="M 8.7185878,4.0337352 -2.2072895,0.01601326 8.7185884,-4.0017078 c -1.7454984,2.3720609 -1.7354408,5.6174519 -6e-7,8.035443 z"
         transform="matrix(-1.1,0,0,-1.1,-1.1,0)"
         inkscape:connector-curvature="0" />
    </marker>
    <marker
       inkscape:stockid="Arrow2Mstart"
       orient="auto"
       refY="0"
       refX="0"
       id="Arrow2Mstart"
       style="overflow:visible"
       inkscape:isstock="true">
      <path
         id="path4372"
         style="fill:#000000;fill-opacity:1;fill-rule:evenodd;stroke:#000000;stroke-width:0.625;stroke-linejoin:round;stroke-opacity:1"
         d="M 8.7185878,4.0337352 -2.2072895,0.01601326 8.7185884,-4.0017078 c -1.7454984,2.3720609 -1.7354408,5.6174519 -6e-7,8.035443 z"
         transform="scale(0.6,0.6)"
         inkscape:connector-curvature="0" />
    </marker>
    <marker
       inkscape:stockid="Arrow1Mstart"
       orient="auto"
       refY="0"
       refX="0"
       id="Arrow1Mstart"
       style="overflow:visible"
       inkscape:isstock="true">
      <path
         id="path4354"
         d="M 0,0 5,-5 -12.5,0 5,5 0,0 Z"
         style="fill:#000000;fill-opacity:1;fill-rule:evenodd;stroke:#000000;stroke-width:1pt;stroke-opacity:1"
         transform="matrix(0.4,0,0,0.4,4,0)"
         inkscape:connector-curvature="0" />
    </marker>
    <marker
       inkscape:isstock="true"
       style="overflow:visible"
       id="marker4286"
       refX="0"
       refY="0"
       orient="auto"
       inkscape:stockid="Arrow2Mend">
      <path
         inkscape:connector-curvature="0"
         transform="scale(-0.6,-0.6)"
         d="M 8.7185878,4.0337352 -2.2072895,0.01601326 8.7185884,-4.0017078 c -1.7454984,2.3720609 -1.7354408,5.6174519 -6e-7,8.035443 z"
         style="fill:#ffa844;fill-opacity:1;fill-rule:evenodd;stroke:#ffa844;stroke-width:0.625;stroke-linejoin:round;stroke-opacity:1"
         id="path4288" />
    </marker>
    <marker
       inkscape:stockid="Arrow2Lend"
       orient="auto"
       refY="0"
       refX="0"
       id="Arrow2Lend"
       style="overflow:visible"
       inkscape:isstock="true">
      <path
         id="path4200"
         style="fill:#000000;fill-opacity:1;fill-rule:evenodd;stroke:#000000;stroke-width:0.625;stroke-linejoin:round;stroke-opacity:1"
         d="M 8.7185878,4.0337352 -2.2072895,0.01601326 8.7185884,-4.0017078 c -1.7454984,2.3720609 -1.7354408,5.6174519 -6e-7,8.035443 z"
         transform="matrix(-1.1,0,0,-1.1,-1.1,0)"
         inkscape:connector-curvature="0" />
    </marker>
    <marker
       inkscape:stockid="Arrow1Lend"
       orient="auto"
       refY="0"
       refX="0"
       id="Arrow1Lend"
       style="overflow:visible"
       inkscape:isstock="true">
      <path
         id="path4182"
         d="M 0,0 5,-5 -12.5,0 5,5 0,0 Z"
         style="fill:#000000;fill-opacity:1;fill-rule:evenodd;stroke:#000000;stroke-width:1pt;stroke-opacity:1"
         transform="matrix(-0.8,0,0,-0.8,-10,0)"
         inkscape:connector-curvature="0" />
    </marker>
    <marker
       inkscape:isstock="true"
       style="overflow:visible"
       id="marker4286-4"
       refX="0"
       refY="0"
       orient="auto"
       inkscape:stockid="Arrow2Mend">
      <path
         inkscape:connector-curvature="0"
         transform="scale(-0.6,-0.6)"
         d="M 8.7185878,4.0337352 -2.2072895,0.01601326 8.7185884,-4.0017078 c -1.7454984,2.3720609 -1.7354408,5.6174519 -6e-7,8.035443 z"
         style="fill:#ff9821;fill-opacity:1;fill-rule:evenodd;stroke:#ff9821;stroke-width:0.625;stroke-linejoin:round;stroke-opacity:1"
         id="path4288-1" />
    </marker>
    <marker
       inkscape:isstock="true"
       style="overflow:visible"
       id="marker4286-1"
       refX="0"
       refY="0"
       orient="auto"
       inkscape:stockid="Arrow2Mend">
      <path
         inkscape:connector-curvature="0"
         transform="scale(-0.6,-0.6)"
         d="M 8.7185878,4.0337352 -2.2072895,0.01601326 8.7185884,-4.0017078 c -1.7454984,2.3720609 -1.7354408,5.6174519 -6e-7,8.035443 z"
         style="fill:#ffa844;fill-opacity:1;fill-rule:evenodd;stroke:#ffa844;stroke-width:0.625;stroke-linejoin:round;stroke-opacity:1"
         id="path4288-19" />
    </marker>
    <marker
       inkscape:isstock="true"
       style="overflow:visible"
       id="marker4286-9"
       refX="0"
       refY="0"
       orient="auto"
       inkscape:stockid="Arrow2Mend">
      <path
         inkscape:connector-curvature="0"
         transform="scale(-0.6,-0.6)"
         d="M 8.7185878,4.0337352 -2.2072895,0.01601326 8.7185884,-4.0017078 c -1.7454984,2.3720609 -1.7354408,5.6174519 -6e-7,8.035443 z"
         style="fill:#ffa844;fill-opacity:1;fill-rule:evenodd;stroke:#ffa844;stroke-width:0.625;stroke-linejoin:round;stroke-opacity:1"
         id="path4288-6" />
    </marker>
    <marker
       inkscape:isstock="true"
       style="overflow:visible"
       id="marker4286-9-7"
       refX="0"
       refY="0"
       orient="auto"
       inkscape:stockid="Arrow2Mend">
      <path
         inkscape:connector-curvature="0"
         transform="scale(-0.6,-0.6)"
         d="M 8.7185878,4.0337352 -2.2072895,0.01601326 8.7185884,-4.0017078 c -1.7454984,2.3720609 -1.7354408,5.6174519 -6e-7,8.035443 z"
         style="fill:#ffa844;fill-opacity:1;fill-rule:evenodd;stroke:#ffa844;stroke-width:0.625;stroke-linejoin:round;stroke-opacity:1"
         id="path4288-6-0" />
    </marker>
    <marker
       inkscape:isstock="true"
       style="overflow:visible"
       id="marker4286-9-0"
       refX="0"
       refY="0"
       orient="auto"
       inkscape:stockid="Arrow2Mend">
      <path
         inkscape:connector-curvature="0"
         transform="scale(-0.6,-0.6)"
         d="M 8.7185878,4.0337352 -2.2072895,0.01601326 8.7185884,-4.0017078 c -1.7454984,2.3720609 -1.7354408,5.6174519 -6e-7,8.035443 z"
         style="fill:#ffa844;fill-opacity:1;fill-rule:evenodd;stroke:#ffa844;stroke-width:0.625;stroke-linejoin:round;stroke-opacity:1"
         id="path4288-6-3" />
    </marker>
    <marker
       inkscape:isstock="true"
       style="overflow:visible"
       id="marker4286-9-1"
       refX="0"
       refY="0"
       orient="auto"
       inkscape:stockid="Arrow2Mend">
      <path
         inkscape:connector-curvature="0"
         transform="scale(-0.6,-0.6)"
         d="M 8.7185878,4.0337352 -2.2072895,0.01601326 8.7185884,-4.0017078 c -1.7454984,2.3720609 -1.7354408,5.6174519 -6e-7,8.035443 z"
         style="fill:#ffa844;fill-opacity:1;fill-rule:evenodd;stroke:#ffa844;stroke-width:0.625;stroke-linejoin:round;stroke-opacity:1"
         id="path4288-6-1" />
    </marker>
    <marker
       inkscape:isstock="true"
       style="overflow:visible"
       id="marker4286-9-70"
       refX="0"
       refY="0"
       orient="auto"
       inkscape:stockid="Arrow2Mend">
      <path
         inkscape:connector-curvature="0"
         transform="scale(-0.6,-0.6)"
         d="M 8.7185878,4.0337352 -2.2072895,0.01601326 8.7185884,-4.0017078 c -1.7454984,2.3720609 -1.7354408,5.6174519 -6e-7,8.035443 z"
         style="fill:#ffa844;fill-opacity:1;fill-rule:evenodd;stroke:#ffa844;stroke-width:0.625;stroke-linejoin:round;stroke-opacity:1"
         id="path4288-6-6" />
    </marker>
    <marker
       inkscape:isstock="true"
       style="overflow:visible"
       id="marker4286-9-8"
       refX="0"
       refY="0"
       orient="auto"
       inkscape:stockid="Arrow2Mend">
      <path
         inkscape:connector-curvature="0"
         transform="scale(-0.6,-0.6)"
         d="M 8.7185878,4.0337352 -2.2072895,0.01601326 8.7185884,-4.0017078 c -1.7454984,2.3720609 -1.7354408,5.6174519 -6e-7,8.035443 z"
         style="fill:#ffa844;fill-opacity:1;fill-rule:evenodd;stroke:#ffa844;stroke-width:0.625;stroke-linejoin:round;stroke-opacity:1"
         id="path4288-6-8" />
    </marker>
    <marker
       inkscape:stockid="Arrow2Mstart"
       orient="auto"
       refY="0"
       refX="0"
       id="Arrow2Mstart-9"
       style="overflow:visible"
       inkscape:isstock="true">
      <path
         id="path4372-7"
         style="fill:#000000;fill-opacity:1;fill-rule:evenodd;stroke:#000000;stroke-width:0.625;stroke-linejoin:round;stroke-opacity:1"
         d="M 8.7185878,4.0337352 -2.2072895,0.01601326 8.7185884,-4.0017078 c -1.7454984,2.3720609 -1.7354408,5.6174519 -6e-7,8.035443 z"
         transform="scale(0.6,0.6)"
         inkscape:connector-curvature="0" />
    </marker>
    <marker
       inkscape:isstock="true"
       style="overflow:visible"
       id="marker4286-8"
       refX="0"
       refY="0"
       orient="auto"
       inkscape:stockid="Arrow2Mend">
      <path
         inkscape:connector-curvature="0"
         transform="scale(-0.6,-0.6)"
         d="M 8.7185878,4.0337352 -2.2072895,0.01601326 8.7185884,-4.0017078 c -1.7454984,2.3720609 -1.7354408,5.6174519 -6e-7,8.035443 z"
         style="fill:#000000;fill-opacity:1;fill-rule:evenodd;stroke:#000000;stroke-width:0.625;stroke-linejoin:round;stroke-opacity:1"
         id="path4288-0" />
    </marker>
    <marker
       inkscape:isstock="true"
       style="overflow:visible"
       id="marker4286-9-9"
       refX="0"
       refY="0"
       orient="auto"
       inkscape:stockid="Arrow2Mend">
      <path
         inkscape:connector-curvature="0"
         transform="scale(-0.6,-0.6)"
         d="M 8.7185878,4.0337352 -2.2072895,0.01601326 8.7185884,-4.0017078 c -1.7454984,2.3720609 -1.7354408,5.6174519 -6e-7,8.035443 z"
         style="fill:#fe9518;fill-opacity:1;fill-rule:evenodd;stroke:#fe9518;stroke-width:0.625;stroke-linejoin:round;stroke-opacity:1"
         id="path4288-6-39" />
    </marker>
    <marker
       inkscape:isstock="true"
       style="overflow:visible"
       id="marker4286-9-7-9"
       refX="0"
       refY="0"
       orient="auto"
       inkscape:stockid="Arrow2Mend">
      <path
         inkscape:connector-curvature="0"
         transform="scale(-0.6,-0.6)"
         d="M 8.7185878,4.0337352 -2.2072895,0.01601326 8.7185884,-4.0017078 c -1.7454984,2.3720609 -1.7354408,5.6174519 -6e-7,8.035443 z"
         style="fill:#fe9518;fill-opacity:1;fill-rule:evenodd;stroke:#fe9518;stroke-width:0.625;stroke-linejoin:round;stroke-opacity:1"
         id="path4288-6-0-0" />
    </marker>
    <marker
       inkscape:isstock="true"
       style="overflow:visible"
       id="marker4286-9-1-5"
       refX="0"
       refY="0"
       orient="auto"
       inkscape:stockid="Arrow2Mend">
      <path
         inkscape:connector-curvature="0"
         transform="scale(-0.6,-0.6)"
         d="M 8.7185878,4.0337352 -2.2072895,0.01601326 8.7185884,-4.0017078 c -1.7454984,2.3720609 -1.7354408,5.6174519 -6e-7,8.035443 z"
         style="fill:#fe9518;fill-opacity:1;fill-rule:evenodd;stroke:#fe9518;stroke-width:0.625;stroke-linejoin:round;stroke-opacity:1"
         id="path4288-6-1-8" />
    </marker>
    <marker
       inkscape:isstock="true"
       style="overflow:visible"
       id="marker4286-9-0-3"
       refX="0"
       refY="0"
       orient="auto"
       inkscape:stockid="Arrow2Mend">
      <path
         inkscape:connector-curvature="0"
         transform="scale(-0.6,-0.6)"
         d="M 8.7185878,4.0337352 -2.2072895,0.01601326 8.7185884,-4.0017078 c -1.7454984,2.3720609 -1.7354408,5.6174519 -6e-7,8.035443 z"
         style="fill:#fe9518;fill-opacity:1;fill-rule:evenodd;stroke:#fe9518;stroke-width:0.625;stroke-linejoin:round;stroke-opacity:1"
         id="path4288-6-3-8" />
    </marker>
    <marker
       inkscape:isstock="true"
       style="overflow:visible"
       id="marker4286-9-70-0"
       refX="0"
       refY="0"
       orient="auto"
       inkscape:stockid="Arrow2Mend">
      <path
         inkscape:connector-curvature="0"
         transform="scale(-0.6,-0.6)"
         d="M 8.7185878,4.0337352 -2.2072895,0.01601326 8.7185884,-4.0017078 c -1.7454984,2.3720609 -1.7354408,5.6174519 -6e-7,8.035443 z"
         style="fill:#fe9518;fill-opacity:1;fill-rule:evenodd;stroke:#fe9518;stroke-width:0.625;stroke-linejoin:round;stroke-opacity:1"
         id="path4288-6-6-4" />
    </marker>
    <marker
       inkscape:isstock="true"
       style="overflow:visible"
       id="marker4286-43"
       refX="0"
       refY="0"
       orient="auto"
       inkscape:stockid="Arrow2Mend">
      <path
         inkscape:connector-curvature="0"
         transform="scale(-0.6,-0.6)"
         d="M 8.7185878,4.0337352 -2.2072895,0.01601326 8.7185884,-4.0017078 c -1.7454984,2.3720609 -1.7354408,5.6174519 -6e-7,8.035443 z"
         style="fill:#fe9518;fill-opacity:1;fill-rule:evenodd;stroke:#fe9518;stroke-width:0.625;stroke-linejoin:round;stroke-opacity:1"
         id="path4288-3" />
    </marker>
    <marker
       inkscape:isstock="true"
       style="overflow:visible"
       id="marker4286-9-8-3"
       refX="0"
       refY="0"
       orient="auto"
       inkscape:stockid="Arrow2Mend">
      <path
         inkscape:connector-curvature="0"
         transform="scale(-0.6,-0.6)"
         d="M 8.7185878,4.0337352 -2.2072895,0.01601326 8.7185884,-4.0017078 c -1.7454984,2.3720609 -1.7354408,5.6174519 -6e-7,8.035443 z"
         style="fill:#fe9518;fill-opacity:1;fill-rule:evenodd;stroke:#fe9518;stroke-width:0.625;stroke-linejoin:round;stroke-opacity:1"
         id="path4288-6-8-3" />
    </marker>
    <marker
       inkscape:isstock="true"
       style="overflow:visible"
       id="marker4286-1-2"
       refX="0"
       refY="0"
       orient="auto"
       inkscape:stockid="Arrow2Mend">
      <path
         inkscape:connector-curvature="0"
         transform="scale(-0.6,-0.6)"
         d="M 8.7185878,4.0337352 -2.2072895,0.01601326 8.7185884,-4.0017078 c -1.7454984,2.3720609 -1.7354408,5.6174519 -6e-7,8.035443 z"
         style="fill:#fe9518;fill-opacity:1;fill-rule:evenodd;stroke:#fe9518;stroke-width:0.625;stroke-linejoin:round;stroke-opacity:1"
         id="path4288-19-4" />
    </marker>
    <marker
       inkscape:isstock="true"
       style="overflow:visible"
       id="marker4286-9-0-3-8"
       refX="0"
       refY="0"
       orient="auto"
       inkscape:stockid="Arrow2Mend">
      <path
         inkscape:connector-curvature="0"
         transform="scale(-0.6,-0.6)"
         d="M 8.7185878,4.0337352 -2.2072895,0.01601326 8.7185884,-4.0017078 c -1.7454984,2.3720609 -1.7354408,5.6174519 -6e-7,8.035443 z"
         style="fill:#fe9518;fill-opacity:1;fill-rule:evenodd;stroke:#fe9518;stroke-width:0.625;stroke-linejoin:round;stroke-opacity:1"
         id="path4288-6-3-8-0" />
    </marker>
  </defs>
  <sodipodi:namedview
     id="base"
     pagecolor="#ffffff"
     bordercolor="#666666"
     borderopacity="1.0"
     inkscape:pageopacity="0.0"
     inkscape:pageshadow="2"
     inkscape:zoom="3.959798"
     inkscape:cx="45.759979"
     inkscape:cy="82.829591"
     inkscape:document-units="px"
     inkscape:current-layer="layer1"
     showgrid="false"
     inkscape:window-width="1920"
     inkscape:window-height="1054"
     inkscape:window-x="-9"
     inkscape:window-y="257"
     inkscape:window-maximized="1"
     inkscape:snap-bbox="true"
     inkscape:snap-bbox-midpoints="true"
     inkscape:snap-bbox-edge-midpoints="true"
     inkscape:object-nodes="true"
     inkscape:snap-global="false"
     fit-margin-top="0"
     fit-margin-left="0"
     fit-margin-right="0.6"
     fit-margin-bottom="0"
     inkscape:bbox-paths="true"
     showguides="false" />
  <metadata
     id="metadata4310">
    <rdf:RDF>
      <cc:Work
         rdf:about="">
        <dc:format>image/svg+xml</dc:format>
        <dc:type
           rdf:resource="http://purl.org/dc/dcmitype/StillImage" />
        <dc:title />
      </cc:Work>
    </rdf:RDF>
  </metadata>
  <g
     inkscape:label="Layer 1"
     inkscape:groupmode="layer"
     id="layer1"
     transform="translate(-248.33497,-281.63748)">
    <path
       style="fill:#65cbff;fill-opacity:0.64313725;stroke:none;stroke-width:0.61152172;stroke-linecap:round;stroke-miterlimit:4;stroke-dasharray:3.66913061, 3.66913061;stroke-dashoffset:0;stroke-opacity:1"
       d="m 363.74174,309.87326 -9.54297,15.50781 a 44.703083,44.703083 0 0 1 16.35547,17.11523 l 15.50391,-9.70117 a 63.439991,63.439991 0 0 0 -22.31641,-22.92187 z"
       id="path4426-4"
       inkscape:connector-curvature="0" />
    <path
       inkscape:connector-curvature="0"
       style="fill:#64cbff;fill-opacity:0.34901962;stroke:#000000;stroke-width:0.61152172;stroke-linecap:round;stroke-miterlimit:4;stroke-dasharray:3.66913061, 3.66913060999999980;stroke-dashoffset:0;stroke-opacity:1"
       d="m 330.82224,300.63131 a 63.439991,63.439991 0 0 0 -63.43946,63.43946 63.439991,63.439991 0 0 0 63.43946,63.43946 63.439991,63.439991 0 0 0 63.43945,-63.43946 63.439991,63.439991 0 0 0 -63.43945,-63.43946 z m 0.29883,18.3086 a 44.703083,44.703083 0 0 1 44.70312,44.70312 44.703083,44.703083 0 0 1 -44.70312,44.70314 44.703083,44.703083 0 0 1 -44.70313,-44.70314 44.703083,44.703083 0 0 1 44.70313,-44.70312 z"
       id="path4426" />
    <path
       style="fill:none;fill-rule:evenodd;stroke:#fe9518;stroke-width:1.00000005;stroke-linecap:butt;stroke-linejoin:miter;stroke-miterlimit:4;stroke-dasharray:none;stroke-opacity:1;marker-end:url(#marker4286-9-7-9)"
       d="m 330.96076,364.73541 53.03572,57.43975"
       id="path4443-1-4"
       inkscape:connector-curvature="0"
       sodipodi:nodetypes="cc" />
    <path
       style="fill:none;fill-rule:evenodd;stroke:#fe9518;stroke-width:1.00000005;stroke-linecap:butt;stroke-linejoin:miter;stroke-miterlimit:4;stroke-dasharray:none;stroke-opacity:1;marker-end:url(#marker4286-9-1-5)"
       d="M 331.02528,364.83365 407.4339,381.0637"
       id="path4443-1-9"
       inkscape:connector-curvature="0"
       sodipodi:nodetypes="cc" />
    <path
       style="fill:none;fill-rule:evenodd;stroke:#fe9518;stroke-width:1.00000005;stroke-linecap:butt;stroke-linejoin:miter;stroke-miterlimit:4;stroke-dasharray:none;stroke-opacity:1"
       d="m 331.03703,364.82189 55.51578,-55.51578"
       id="path4443-1-7"
       inkscape:connector-curvature="0"
       sodipodi:nodetypes="cc" />
    <path
       style="fill:none;fill-rule:evenodd;stroke:#fe9518;stroke-width:1.00000005;stroke-linecap:butt;stroke-linejoin:miter;stroke-miterlimit:4;stroke-dasharray:none;stroke-opacity:1;marker-end:url(#marker4286-9-9)"
       d="M 331.03703,364.82189 262.883,330.00046"
       id="path4443-1"
       inkscape:connector-curvature="0"
       sodipodi:nodetypes="cc" />
    <path
       style="fill:none;fill-rule:evenodd;stroke:#fe9518;stroke-width:1.00000005;stroke-linecap:butt;stroke-linejoin:miter;stroke-miterlimit:4;stroke-dasharray:none;stroke-opacity:1;marker-end:url(#marker4286-9-70-0)"
       d="m 330.96076,364.73541 3.23423,78.90864"
       id="path4443-1-2"
       inkscape:connector-curvature="0"
       sodipodi:nodetypes="cc" />
    <path
       style="fill:none;fill-rule:evenodd;stroke:#fe9518;stroke-width:1.00000005;stroke-linecap:butt;stroke-linejoin:miter;stroke-miterlimit:4;stroke-dasharray:none;stroke-opacity:1;marker-end:url(#marker4286-1-2)"
       d="m 331.02528,364.83365 73.68974,-30"
       id="path4443-3"
       inkscape:connector-curvature="0"
       sodipodi:nodetypes="cc" />
    <ellipse
       style="fill:none;fill-opacity:1;stroke:#000000;stroke-width:0.50000006;stroke-linecap:round;stroke-miterlimit:4;stroke-dasharray:none;stroke-dashoffset:0;stroke-opacity:1"
       id="path4159-8"
       cx="492.21335"
       cy="-46.745167"
       rx="18.006285"
       ry="5.3925066"
       transform="matrix(0.70693737,0.70727615,-0.70727615,0.70693737,0,0)"
       d="m 510.21963,-46.745167 a 18.006285,5.3925066 0 0 1 -18.00628,5.392507 18.006285,5.3925066 0 0 1 -18.00629,-5.392507 18.006285,5.3925066 0 0 1 18.00629,-5.392506 18.006285,5.3925066 0 0 1 18.00628,5.392506 z" />
    <path
       style="fill:none;fill-rule:evenodd;stroke:#000000;stroke-width:0.50000006;stroke-linecap:butt;stroke-linejoin:miter;stroke-miterlimit:4;stroke-dasharray:none;stroke-dashoffset:0;stroke-opacity:1"
       d="m 368.12522,302.55364 -41.40268,67.28494 66.86683,-41.84507"
       id="path4561-7-5"
       inkscape:connector-curvature="0"
       sodipodi:nodetypes="ccc" />
    <path
       style="fill:none;fill-rule:evenodd;stroke:#fe9518;stroke-width:1.00000005;stroke-linecap:butt;stroke-linejoin:miter;stroke-miterlimit:4;stroke-dasharray:none;stroke-opacity:1;marker-end:url(#marker4286-43)"
       d="m 331.03703,364.82189 5.17857,-77.26116"
       id="path4443"
       inkscape:connector-curvature="0"
       sodipodi:nodetypes="cc" />
    <path
       style="fill:none;fill-rule:evenodd;stroke:#fe9518;stroke-width:1.00000005;stroke-linecap:butt;stroke-linejoin:miter;stroke-miterlimit:4;stroke-dasharray:none;stroke-opacity:1;marker-end:url(#marker4286-9-8-3)"
       d="M 330.96076,364.73541 290.26641,298.1482"
       id="path4443-1-0"
       inkscape:connector-curvature="0"
       sodipodi:nodetypes="cc" />
    <g
       id="layer6-0"
       transform="matrix(0.77568174,0,0,0.77568174,-7.7379761,80.157763)">
      <circle
         r="12.1875"
         cy="365.99908"
         cx="436.42035"
         id="path5674-1"
         style="display:inline;fill:#ffff00;fill-opacity:1;stroke:#fe9518;stroke-width:1.625;stroke-linecap:round;stroke-miterlimit:4;stroke-dasharray:none;stroke-opacity:1"
         transform="translate(7.3563763e-6,0)"
         d="m 448.60785,365.99908 a 12.1875,12.1875 0 0 1 -12.1875,12.1875 12.1875,12.1875 0 0 1 -12.1875,-12.1875 12.1875,12.1875 0 0 1 12.1875,-12.1875 12.1875,12.1875 0 0 1 12.1875,12.1875 z" />
      <path
         d="m 440.12808,351.76399 -3.6643,0 -3.6643,0 1.83215,-3.17338 1.83215,-3.17337 1.83215,3.17337 z"
         id="path8080-3"
         style="fill:#ffff00;fill-opacity:1;stroke:#fe9517;stroke-width:0.99148905;stroke-linecap:round;stroke-miterlimit:4;stroke-dasharray:none;stroke-dashoffset:0;stroke-opacity:1"
         inkscape:connector-curvature="0" />
      <path
         d="m 439.91678,380.27079 -3.6643,0 -3.6643,0 1.83215,3.17337 1.83215,3.17338 1.83215,-3.17338 z"
         id="path8080-5-5"
         style="fill:#ffff00;fill-opacity:1;stroke:#fe9517;stroke-width:0.99148905;stroke-linecap:round;stroke-miterlimit:4;stroke-dasharray:none;stroke-dashoffset:0;stroke-opacity:1"
         inkscape:connector-curvature="0" />
      <path
         d="m 422.03249,369.572 0,-3.6643 0,-3.6643 -3.17337,1.83215 -3.17338,1.83215 3.17338,1.83215 z"
         id="path8080-5-7-87"
         style="fill:#ffff00;fill-opacity:1;stroke:#fe9517;stroke-width:0.99148905;stroke-linecap:round;stroke-miterlimit:4;stroke-dasharray:none;stroke-dashoffset:0;stroke-opacity:1"
         inkscape:connector-curvature="0" />
      <path
         d="m 450.89741,369.71286 0,-3.6643 0,-3.6643 3.17337,1.83215 3.17338,1.83215 -3.17338,1.83215 z"
         id="path8080-5-7-8-8"
         style="fill:#ffff00;fill-opacity:1;stroke:#fe9517;stroke-width:0.99148905;stroke-linecap:round;stroke-miterlimit:4;stroke-dasharray:none;stroke-dashoffset:0;stroke-opacity:1"
         inkscape:connector-curvature="0" />
      <path
         d="m 457.00201,-348.10207 -3.6643,0 -3.6643,0 1.83215,-3.17337 1.83215,-3.17338 1.83215,3.17338 z"
         id="path8080-5-7-8-3-2"
         style="fill:#ffff00;fill-opacity:1;stroke:#fe9517;stroke-width:0.99148905;stroke-linecap:round;stroke-miterlimit:4;stroke-dasharray:none;stroke-dashoffset:0;stroke-opacity:1"
         inkscape:connector-curvature="0"
         transform="matrix(0.70710678,0.70710678,-0.70710678,0.70710678,-120.23976,281.74556)" />
      <path
         d="m 451.077,380.64661 -3.52434,-1.0031 -3.52433,-1.0031 2.63088,-2.55059 2.63087,-2.55062 0.89345,3.55372 z"
         id="path8080-5-7-8-3-4-1"
         style="fill:#ffff00;fill-opacity:1;stroke:#fe9517;stroke-width:0.99148905;stroke-linecap:round;stroke-miterlimit:4;stroke-dasharray:none;stroke-dashoffset:0;stroke-opacity:1"
         inkscape:connector-curvature="0" />
      <path
         transform="matrix(0.70710678,-0.70710677,0.70710677,0.70710678,351.91113,922.77583)"
         d="m 457.00201,-348.10207 -3.6643,0 -3.6643,0 1.83215,-3.17337 1.83215,-3.17338 1.83215,3.17338 z"
         id="path8080-5-7-8-3-4-9-5"
         style="fill:#ffff00;fill-opacity:1;stroke:#fe9517;stroke-width:0.99148905;stroke-linecap:round;stroke-miterlimit:4;stroke-dasharray:none;stroke-dashoffset:0;stroke-opacity:1"
         inkscape:connector-curvature="0" />
      <path
         d="m 428.35054,378.82909 -3.50737,1.06085 -3.50739,1.06084 0.83498,-3.56789 0.83497,-3.56791 2.67241,2.50707 z"
         id="path8080-5-7-8-3-4-9-8-8"
         style="fill:#ffff00;fill-opacity:1;stroke:#fe9517;stroke-width:0.99148905;stroke-linecap:round;stroke-miterlimit:4;stroke-dasharray:none;stroke-dashoffset:0;stroke-opacity:1"
         inkscape:connector-curvature="0" />
    </g>
    <path
       id="path5770"
       style="fill:#fe9518;fill-opacity:1;fill-rule:evenodd;stroke:#fe9518;stroke-width:0.40877938;stroke-linejoin:round;stroke-opacity:1"
       d="m 380.34601,311.79113 6.91114,-3.19489 -3.19489,6.91114 c -0.28978,-1.9043 -1.79536,-3.40057 -3.71625,-3.71625 z"
       inkscape:connector-curvature="0" />
    <text
       xml:space="preserve"
       style="font-style:normal;font-weight:normal;font-size:48.92173767px;line-height:125%;font-family:sans-serif;letter-spacing:0px;word-spacing:0px;fill:#000000;fill-opacity:1;stroke:none;stroke-width:1px;stroke-linecap:butt;stroke-linejoin:miter;stroke-opacity:1"
       x="356.33511"
       y="299.31393"
       id="text8678"
       sodipodi:linespacing="125%"><tspan
         sodipodi:role="line"
         id="tspan8680"
         x="356.33511"
         y="299.31393"
         style="font-size:7.50000048px">$\mathrm{d}\omega$</tspan></text>
    <text
       xml:space="preserve"
       style="font-style:normal;font-weight:normal;font-size:48.92173767px;line-height:125%;font-family:sans-serif;letter-spacing:0px;word-spacing:0px;fill:#000000;fill-opacity:1;stroke:none;stroke-width:1px;stroke-linecap:butt;stroke-linejoin:miter;stroke-opacity:1"
       x="343.11008"
       y="316.94067"
       id="text8678-3"
       sodipodi:linespacing="125%"><tspan
         sodipodi:role="line"
         id="tspan8680-8"
         x="343.11008"
         y="316.94067"
         style="font-size:7.50000048px">$\phi$</tspan></text>
  </g>
</svg>
