<?xml version="1.0" encoding="UTF-8" standalone="no"?>
<!-- Created with Inkscape (http://www.inkscape.org/) -->

<svg
   xmlns:dc="http://purl.org/dc/elements/1.1/"
   xmlns:cc="http://creativecommons.org/ns#"
   xmlns:rdf="http://www.w3.org/1999/02/22-rdf-syntax-ns#"
   xmlns:svg="http://www.w3.org/2000/svg"
   xmlns="http://www.w3.org/2000/svg"
   xmlns:sodipodi="http://sodipodi.sourceforge.net/DTD/sodipodi-0.dtd"
   xmlns:inkscape="http://www.inkscape.org/namespaces/inkscape"
   width="744.09448"
   height="1052.3622"
   id="svg2"
   version="1.1"
   inkscape:version="0.91pre2 r13516"
   viewBox="0 0 744.09448 1052.3622"
   sodipodi:docname="teapot.svg">
  <defs
     id="defs4" />
  <sodipodi:namedview
     id="base"
     pagecolor="#ffffff"
     bordercolor="#666666"
     borderopacity="1.0"
     inkscape:pageopacity="0.0"
     inkscape:pageshadow="2"
     inkscape:zoom="0.98994949"
     inkscape:cx="462.78866"
     inkscape:cy="600.50301"
     inkscape:document-units="px"
     inkscape:current-layer="layer1"
     showgrid="false"
     inkscape:window-width="2560"
     inkscape:window-height="1369"
     inkscape:window-x="1911"
     inkscape:window-y="-9"
     inkscape:window-maximized="1" />
  <metadata
     id="metadata7">
    <rdf:RDF>
      <cc:Work
         rdf:about="">
        <dc:format>image/svg+xml</dc:format>
        <dc:type
           rdf:resource="http://purl.org/dc/dcmitype/StillImage" />
        <dc:title></dc:title>
      </cc:Work>
    </rdf:RDF>
  </metadata>
  <g
     inkscape:label="Layer 1"
     inkscape:groupmode="layer"
     id="layer1">
    <path
       style="fill:none;stroke:#000000;stroke-width:1.30000007;stroke-miterlimit:4;stroke-dasharray:none;stroke-opacity:1"
       d="m 82.159156,387.26447 c 5.320143,36.51997 35.708454,69.74432 88.609064,96.87864 13.72359,7.03923 14.53143,7.67455 17.82697,14.01969 4.80131,9.24431 13.9436,19.22093 27.8998,30.44595 6.54172,5.26154 13.27288,11.75065 14.95811,14.42024 7.54687,11.955 33.46654,17.62156 98.69012,21.57563 0,0 79.19738,0.0794 90.625,-0.57323 62.23044,-3.55408 98.21982,-11.7346 103.97283,-23.6334 1.19216,-2.46571 7.39806,-8.79337 14.375,-14.65704 13.73632,-11.54449 21.43331,-20.2939 27.90217,-31.71724 l 4.375,-7.7258 13.43112,-5.74439 c 30.9708,-13.24598 45.61023,-32.22026 58.43988,-75.74439 9.35924,-31.75085 11.30484,-37.39576 16.5764,-48.09435 9.12325,-18.5155 24.13221,-27.75236 47.4901,-42.13749 l 5.9375,-3.65665 -30.15108,-0.0115 c -33.14337,0.95308 -33.3384,0.9959 -43.59892,9.57325 -7.8045,6.52422 -13.01258,15.79319 -21.31192,37.92936 -10.98825,29.30806 -17.30121,38.72913 -30.42858,45.40977 -8.83752,4.4975 -23.2595,8.19091 -23.2595,5.95669 0,-9.80009 -39.55621,-97.39595 -45.7833,-101.38555 -1.97543,-1.26562 -4.41313,-3.08969 -5.41712,-4.05349 -4.64569,-4.45969 -19.25128,-7.99045 -55.04958,-13.30768 -65.54786,-9.73602 -71.42571,-14.25714 -50.54138,-38.87541 13.04943,-15.38257 11.27517,-20.04083 -8.75307,-22.98081 -13.42242,-2.27304 -27.04837,-1.87083 -43.87887,-0.004 -18.5064,2.71895 -19.47754,8.37863 -4.38991,25.58396 18.83005,21.47305 11.15652,26.47804 -55.60878,36.27037 -51.41715,7.54125 -58.83172,10.80979 -68.43166,30.16649 l -5.20346,10.49194 -17.53394,0.0411 c -87.29735,0.20463 -117.327016,9.09521 -121.892874,36.08769 -0.534603,3.16046 -0.554376,14.7889 0.12488,19.45163 z m 90.791484,71.97595 c -43.98676,-21.97283 -75.700478,-84.28287 -49.65898,-97.56825 9.29152,-4.74018 87.47656,-11.14615 87.47656,-7.16725 0,0.38911 -2.8595,7.36675 -6.35444,15.50585 -13.3204,31.02084 -22.06065,60.92351 -24.32901,83.23586 -0.95883,9.43141 -0.69544,9.21012 -7.13413,5.99379 z"
       id="path4231"
       inkscape:connector-curvature="0"
       sodipodi:nodetypes="cssssccssscsssscsssssssssccssscsccssssss" />
  </g>
</svg>
