<?xml version="1.0" encoding="UTF-8" standalone="no"?>
<!-- Created with Inkscape (http://www.inkscape.org/) -->

<svg
   xmlns:dc="http://purl.org/dc/elements/1.1/"
   xmlns:cc="http://creativecommons.org/ns#"
   xmlns:rdf="http://www.w3.org/1999/02/22-rdf-syntax-ns#"
   xmlns:svg="http://www.w3.org/2000/svg"
   xmlns="http://www.w3.org/2000/svg"
   xmlns:sodipodi="http://sodipodi.sourceforge.net/DTD/sodipodi-0.dtd"
   xmlns:inkscape="http://www.inkscape.org/namespaces/inkscape"
   width="926.27783"
   height="433.94568"
   id="svg2"
   version="1.1"
   inkscape:version="0.91pre2 r13516"
   viewBox="0 0 926.27783 433.94569"
   sodipodi:docname="stats.svg">
  <defs
     id="defs4">
    <clipPath
       id="clipPath4317"
       clipPathUnits="userSpaceOnUse">
      <path
         style="clip-rule:evenodd"
         inkscape:connector-curvature="0"
         id="path4319"
         d="m 50.76,124.44 740.52,0 0,346.56 -740.52,0 0,-346.56 z" />
    </clipPath>
    <clipPath
       id="clipPath4329"
       clipPathUnits="userSpaceOnUse">
      <path
         style="clip-rule:evenodd"
         inkscape:connector-curvature="0"
         id="path4331"
         d="m 50.76,124.44 740.52,0 0,346.56 -740.52,0 0,-346.56 z" />
    </clipPath>
    <clipPath
       id="clipPath4341"
       clipPathUnits="userSpaceOnUse">
      <path
         style="clip-rule:evenodd"
         inkscape:connector-curvature="0"
         id="path4343"
         d="m 50.76,124.44 740.52,0 0,346.56 -740.52,0 0,-346.56 z" />
    </clipPath>
    <clipPath
       id="clipPath4353"
       clipPathUnits="userSpaceOnUse">
      <path
         style="clip-rule:evenodd"
         inkscape:connector-curvature="0"
         id="path4355"
         d="m 50.76,124.44 740.52,0 0,346.56 -740.52,0 0,-346.56 z" />
    </clipPath>
    <clipPath
       id="clipPath4365"
       clipPathUnits="userSpaceOnUse">
      <path
         style="clip-rule:evenodd"
         inkscape:connector-curvature="0"
         id="path4367"
         d="m 50.76,124.44 740.52,0 0,346.56 -740.52,0 0,-346.56 z" />
    </clipPath>
    <clipPath
       id="clipPath4377"
       clipPathUnits="userSpaceOnUse">
      <path
         style="clip-rule:evenodd"
         inkscape:connector-curvature="0"
         id="path4379"
         d="m 50.76,124.44 740.52,0 0,346.56 -740.52,0 0,-346.56 z" />
    </clipPath>
    <clipPath
       id="clipPath4389"
       clipPathUnits="userSpaceOnUse">
      <path
         style="clip-rule:evenodd"
         inkscape:connector-curvature="0"
         id="path4391"
         d="m 50.76,124.44 740.52,0 0,346.56 -740.52,0 0,-346.56 z" />
    </clipPath>
    <clipPath
       id="clipPath4401"
       clipPathUnits="userSpaceOnUse">
      <path
         style="clip-rule:evenodd"
         inkscape:connector-curvature="0"
         id="path4403"
         d="m 50.76,124.44 740.52,0 0,346.56 -740.52,0 0,-346.56 z" />
    </clipPath>
    <clipPath
       id="clipPath4413"
       clipPathUnits="userSpaceOnUse">
      <path
         style="clip-rule:evenodd"
         inkscape:connector-curvature="0"
         id="path4415"
         d="m 50.76,124.44 740.52,0 0,346.56 -740.52,0 0,-346.56 z" />
    </clipPath>
    <clipPath
       id="clipPath4425"
       clipPathUnits="userSpaceOnUse">
      <path
         style="clip-rule:evenodd"
         inkscape:connector-curvature="0"
         id="path4427"
         d="m 50.76,124.44 740.52,0 0,346.56 -740.52,0 0,-346.56 z" />
    </clipPath>
    <clipPath
       id="clipPath4437"
       clipPathUnits="userSpaceOnUse">
      <path
         style="clip-rule:evenodd"
         inkscape:connector-curvature="0"
         id="path4439"
         d="m 50.76,124.44 740.52,0 0,346.56 -740.52,0 0,-346.56 z" />
    </clipPath>
    <clipPath
       id="clipPath4449"
       clipPathUnits="userSpaceOnUse">
      <path
         style="clip-rule:evenodd"
         inkscape:connector-curvature="0"
         id="path4451"
         d="m 50.76,124.44 740.52,0 0,346.56 -740.52,0 0,-346.56 z" />
    </clipPath>
    <clipPath
       id="clipPath4461"
       clipPathUnits="userSpaceOnUse">
      <path
         style="clip-rule:evenodd"
         inkscape:connector-curvature="0"
         id="path4463"
         d="m 50.76,124.44 740.52,0 0,346.56 -740.52,0 0,-346.56 z" />
    </clipPath>
    <clipPath
       id="clipPath4473"
       clipPathUnits="userSpaceOnUse">
      <path
         style="clip-rule:evenodd"
         inkscape:connector-curvature="0"
         id="path4475"
         d="m 50.76,124.44 740.52,0 0,346.56 -740.52,0 0,-346.56 z" />
    </clipPath>
    <clipPath
       id="clipPath4485"
       clipPathUnits="userSpaceOnUse">
      <path
         style="clip-rule:evenodd"
         inkscape:connector-curvature="0"
         id="path4487"
         d="m 50.76,124.44 740.52,0 0,346.56 -740.52,0 0,-346.56 z" />
    </clipPath>
    <clipPath
       id="clipPath4497"
       clipPathUnits="userSpaceOnUse">
      <path
         style="clip-rule:evenodd"
         inkscape:connector-curvature="0"
         id="path4499"
         d="m 50.76,124.44 740.52,0 0,346.56 -740.52,0 0,-346.56 z" />
    </clipPath>
    <clipPath
       id="clipPath4509"
       clipPathUnits="userSpaceOnUse">
      <path
         style="clip-rule:evenodd"
         inkscape:connector-curvature="0"
         id="path4511"
         d="m 50.76,124.44 740.52,0 0,346.56 -740.52,0 0,-346.56 z" />
    </clipPath>
    <clipPath
       id="clipPath4521"
       clipPathUnits="userSpaceOnUse">
      <path
         style="clip-rule:evenodd"
         inkscape:connector-curvature="0"
         id="path4523"
         d="m 50.76,124.44 740.52,0 0,346.56 -740.52,0 0,-346.56 z" />
    </clipPath>
    <clipPath
       id="clipPath4533"
       clipPathUnits="userSpaceOnUse">
      <path
         style="clip-rule:evenodd"
         inkscape:connector-curvature="0"
         id="path4535"
         d="m 50.76,124.44 740.52,0 0,346.56 -740.52,0 0,-346.56 z" />
    </clipPath>
    <clipPath
       id="clipPath4545"
       clipPathUnits="userSpaceOnUse">
      <path
         style="clip-rule:evenodd"
         inkscape:connector-curvature="0"
         id="path4547"
         d="m 50.76,124.44 740.52,0 0,346.56 -740.52,0 0,-346.56 z" />
    </clipPath>
    <clipPath
       id="clipPath4565"
       clipPathUnits="userSpaceOnUse">
      <path
         style="clip-rule:evenodd"
         inkscape:connector-curvature="0"
         id="path4567"
         d="m 50.76,124.44 740.52,0 0,346.56 -740.52,0 0,-346.56 z" />
    </clipPath>
    <clipPath
       id="clipPath4585"
       clipPathUnits="userSpaceOnUse">
      <path
         style="clip-rule:evenodd"
         inkscape:connector-curvature="0"
         id="path4587"
         d="m 50.76,124.44 740.52,0 0,346.56 -740.52,0 0,-346.56 z" />
    </clipPath>
    <clipPath
       id="clipPath4605"
       clipPathUnits="userSpaceOnUse">
      <path
         style="clip-rule:evenodd"
         inkscape:connector-curvature="0"
         id="path4607"
         d="m 50.76,124.44 740.52,0 0,346.56 -740.52,0 0,-346.56 z" />
    </clipPath>
    <clipPath
       id="clipPath4617"
       clipPathUnits="userSpaceOnUse">
      <path
         style="clip-rule:evenodd"
         inkscape:connector-curvature="0"
         id="path4619"
         d="m 50.4,124.08 741.12,0 0,347.28 -741.12,0 0,-347.28 z" />
    </clipPath>
    <clipPath
       id="clipPath4970"
       clipPathUnits="userSpaceOnUse">
      <path
         style="clip-rule:evenodd"
         inkscape:connector-curvature="0"
         id="path4972"
         d="m 50.76,124.44 740.52,0 0,346.56 -740.52,0 0,-346.56 z" />
    </clipPath>
    <clipPath
       id="clipPath4982"
       clipPathUnits="userSpaceOnUse">
      <path
         style="clip-rule:evenodd"
         inkscape:connector-curvature="0"
         id="path4984"
         d="m 50.76,124.44 740.52,0 0,346.56 -740.52,0 0,-346.56 z" />
    </clipPath>
    <clipPath
       id="clipPath4994"
       clipPathUnits="userSpaceOnUse">
      <path
         style="clip-rule:evenodd"
         inkscape:connector-curvature="0"
         id="path4996"
         d="m 50.76,124.44 740.52,0 0,346.56 -740.52,0 0,-346.56 z" />
    </clipPath>
    <clipPath
       id="clipPath5006"
       clipPathUnits="userSpaceOnUse">
      <path
         style="clip-rule:evenodd"
         inkscape:connector-curvature="0"
         id="path5008"
         d="m 50.76,124.44 740.52,0 0,346.56 -740.52,0 0,-346.56 z" />
    </clipPath>
    <clipPath
       id="clipPath5018"
       clipPathUnits="userSpaceOnUse">
      <path
         style="clip-rule:evenodd"
         inkscape:connector-curvature="0"
         id="path5020"
         d="m 50.76,124.44 740.52,0 0,346.56 -740.52,0 0,-346.56 z" />
    </clipPath>
    <clipPath
       id="clipPath5030"
       clipPathUnits="userSpaceOnUse">
      <path
         style="clip-rule:evenodd"
         inkscape:connector-curvature="0"
         id="path5032"
         d="m 50.76,124.44 740.52,0 0,346.56 -740.52,0 0,-346.56 z" />
    </clipPath>
    <clipPath
       id="clipPath5042"
       clipPathUnits="userSpaceOnUse">
      <path
         style="clip-rule:evenodd"
         inkscape:connector-curvature="0"
         id="path5044"
         d="m 50.76,124.44 740.52,0 0,346.56 -740.52,0 0,-346.56 z" />
    </clipPath>
    <clipPath
       id="clipPath5054"
       clipPathUnits="userSpaceOnUse">
      <path
         style="clip-rule:evenodd"
         inkscape:connector-curvature="0"
         id="path5056"
         d="m 50.76,124.44 740.52,0 0,346.56 -740.52,0 0,-346.56 z" />
    </clipPath>
    <clipPath
       id="clipPath5066"
       clipPathUnits="userSpaceOnUse">
      <path
         style="clip-rule:evenodd"
         inkscape:connector-curvature="0"
         id="path5068"
         d="m 50.76,124.44 740.52,0 0,346.56 -740.52,0 0,-346.56 z" />
    </clipPath>
    <clipPath
       id="clipPath5078"
       clipPathUnits="userSpaceOnUse">
      <path
         style="clip-rule:evenodd"
         inkscape:connector-curvature="0"
         id="path5080"
         d="m 50.76,124.44 740.52,0 0,346.56 -740.52,0 0,-346.56 z" />
    </clipPath>
    <clipPath
       id="clipPath5090"
       clipPathUnits="userSpaceOnUse">
      <path
         style="clip-rule:evenodd"
         inkscape:connector-curvature="0"
         id="path5092"
         d="m 50.76,124.44 740.52,0 0,346.56 -740.52,0 0,-346.56 z" />
    </clipPath>
    <clipPath
       id="clipPath5102"
       clipPathUnits="userSpaceOnUse">
      <path
         style="clip-rule:evenodd"
         inkscape:connector-curvature="0"
         id="path5104"
         d="m 50.76,124.44 740.52,0 0,346.56 -740.52,0 0,-346.56 z" />
    </clipPath>
    <clipPath
       id="clipPath5114"
       clipPathUnits="userSpaceOnUse">
      <path
         style="clip-rule:evenodd"
         inkscape:connector-curvature="0"
         id="path5116"
         d="m 50.76,124.44 740.52,0 0,346.56 -740.52,0 0,-346.56 z" />
    </clipPath>
    <clipPath
       id="clipPath5126"
       clipPathUnits="userSpaceOnUse">
      <path
         style="clip-rule:evenodd"
         inkscape:connector-curvature="0"
         id="path5128"
         d="m 50.76,124.44 740.52,0 0,346.56 -740.52,0 0,-346.56 z" />
    </clipPath>
    <clipPath
       id="clipPath5138"
       clipPathUnits="userSpaceOnUse">
      <path
         style="clip-rule:evenodd"
         inkscape:connector-curvature="0"
         id="path5140"
         d="m 50.76,124.44 740.52,0 0,346.56 -740.52,0 0,-346.56 z" />
    </clipPath>
    <clipPath
       id="clipPath5150"
       clipPathUnits="userSpaceOnUse">
      <path
         style="clip-rule:evenodd"
         inkscape:connector-curvature="0"
         id="path5152"
         d="m 50.76,124.44 740.52,0 0,346.56 -740.52,0 0,-346.56 z" />
    </clipPath>
    <clipPath
       id="clipPath5162"
       clipPathUnits="userSpaceOnUse">
      <path
         style="clip-rule:evenodd"
         inkscape:connector-curvature="0"
         id="path5164"
         d="m 50.76,124.44 740.52,0 0,346.56 -740.52,0 0,-346.56 z" />
    </clipPath>
    <clipPath
       id="clipPath5174"
       clipPathUnits="userSpaceOnUse">
      <path
         style="clip-rule:evenodd"
         inkscape:connector-curvature="0"
         id="path5176"
         d="m 50.76,124.44 740.52,0 0,346.56 -740.52,0 0,-346.56 z" />
    </clipPath>
    <clipPath
       id="clipPath5186"
       clipPathUnits="userSpaceOnUse">
      <path
         style="clip-rule:evenodd"
         inkscape:connector-curvature="0"
         id="path5188"
         d="m 50.76,124.44 740.52,0 0,346.56 -740.52,0 0,-346.56 z" />
    </clipPath>
    <clipPath
       id="clipPath5198"
       clipPathUnits="userSpaceOnUse">
      <path
         style="clip-rule:evenodd"
         inkscape:connector-curvature="0"
         id="path5200"
         d="m 50.76,124.44 740.52,0 0,346.56 -740.52,0 0,-346.56 z" />
    </clipPath>
    <clipPath
       id="clipPath5216"
       clipPathUnits="userSpaceOnUse">
      <path
         style="clip-rule:evenodd"
         inkscape:connector-curvature="0"
         id="path5218"
         d="m 50.76,124.44 740.52,0 0,346.56 -740.52,0 0,-346.56 z" />
    </clipPath>
    <clipPath
       id="clipPath5234"
       clipPathUnits="userSpaceOnUse">
      <path
         style="clip-rule:evenodd"
         inkscape:connector-curvature="0"
         id="path5236"
         d="m 50.76,124.44 740.52,0 0,346.56 -740.52,0 0,-346.56 z" />
    </clipPath>
    <clipPath
       id="clipPath5252"
       clipPathUnits="userSpaceOnUse">
      <path
         style="clip-rule:evenodd"
         inkscape:connector-curvature="0"
         id="path5254"
         d="m 50.76,124.44 740.52,0 0,346.56 -740.52,0 0,-346.56 z" />
    </clipPath>
    <clipPath
       id="clipPath5264"
       clipPathUnits="userSpaceOnUse">
      <path
         style="clip-rule:evenodd"
         inkscape:connector-curvature="0"
         id="path5266"
         d="m 50.4,124.08 741.12,0 0,347.28 -741.12,0 0,-347.28 z" />
    </clipPath>
  </defs>
  <sodipodi:namedview
     id="base"
     pagecolor="#ffffff"
     bordercolor="#666666"
     borderopacity="1.0"
     inkscape:pageopacity="0.0"
     inkscape:pageshadow="2"
     inkscape:zoom="0.98994949"
     inkscape:cx="463.13891"
     inkscape:cy="216.97284"
     inkscape:document-units="px"
     inkscape:current-layer="layer1"
     showgrid="false"
     fit-margin-top="0"
     fit-margin-left="0"
     fit-margin-right="0"
     fit-margin-bottom="0"
     inkscape:window-width="2560"
     inkscape:window-height="1369"
     inkscape:window-x="1911"
     inkscape:window-y="-9"
     inkscape:window-maximized="1" />
  <metadata
     id="metadata7">
    <rdf:RDF>
      <cc:Work
         rdf:about="">
        <dc:format>image/svg+xml</dc:format>
        <dc:type
           rdf:resource="http://purl.org/dc/dcmitype/StillImage" />
        <dc:title></dc:title>
      </cc:Work>
    </rdf:RDF>
  </metadata>
  <g
     inkscape:label="Layer 1"
     inkscape:groupmode="layer"
     id="layer1"
     transform="translate(-88.419186,-382.83078)">
    <g
       transform="matrix(1.25,0,0,-1.25,25.297017,971.92862)"
       inkscape:label="stats"
       id="g4870">
      <path
         inkscape:connector-curvature="0"
         id="path4872"
         style="fill:#ffffff;fill-opacity:1;fill-rule:evenodd;stroke:none"
         d="m 50.766,124.39 740.51,0 0,346.62 -740.51,0 0,-346.62 z" />
      <path
         inkscape:connector-curvature="0"
         id="path4874"
         style="fill:none;stroke:#d9d9d9;stroke-width:0.53654999;stroke-linecap:butt;stroke-linejoin:round;stroke-miterlimit:10;stroke-dasharray:none;stroke-opacity:1"
         d="m 99.798,244.92 669.102,0 m -669.102,43.09 669.102,0 m -669.102,43.1 669.102,0 m -669.102,43.09 669.102,0 m -669.102,43.1 669.102,0 m -669.102,43.15 669.102,0" />
      <path
         inkscape:connector-curvature="0"
         id="path4876"
         style="fill:none;stroke:#d9d9d9;stroke-width:0.53654999;stroke-linecap:butt;stroke-linejoin:round;stroke-miterlimit:10;stroke-dasharray:none;stroke-opacity:1"
         d="m 166.72,460.45 0,-258.68 m 66.87,258.68 0,-258.68 m 66.96,258.68 0,-258.68 m 66.88,258.68 0,-258.68 m 66.96,258.68 0,-258.68 m 66.87,258.68 0,-258.68 m 66.88,258.68 0,-258.68 m 66.96,258.68 0,-258.68 m 66.88,258.68 0,-258.68 m 66.92,258.68 0,-258.68" />
      <path
         inkscape:connector-curvature="0"
         id="path4878"
         style="fill:none;stroke:#bfbfbf;stroke-width:0.53654999;stroke-linecap:butt;stroke-linejoin:round;stroke-miterlimit:10;stroke-dasharray:none;stroke-opacity:1"
         d="m 99.798,201.77 0,258.68" />
      <path
         inkscape:connector-curvature="0"
         id="path4880"
         style="fill:none;stroke:#bfbfbf;stroke-width:0.53654999;stroke-linecap:butt;stroke-linejoin:round;stroke-miterlimit:10;stroke-dasharray:none;stroke-opacity:1"
         d="m 99.798,201.77 669.102,0" />
      <g
         id="g4882">
        <path
           inkscape:connector-curvature="0"
           id="path4884"
           style="fill:none;stroke:#5b9bd5;stroke-width:1.07309997;stroke-linecap:round;stroke-linejoin:round;stroke-miterlimit:10;stroke-dasharray:0, 2.1462;stroke-dashoffset:0;stroke-opacity:1"
           d="m 108.68,211.09 20.18,-0.07 29.87,1.02 36.49,0.68 42.75,1.03 54.34,1.03 55.37,1.38 73.66,1.54 71.94,1.89 83.27,2.4 86.02,2.06 100.43,2.88" />
      </g>
      <path
         inkscape:connector-curvature="0"
         id="path4886"
         style="fill:#5b9bd5;fill-opacity:1;fill-rule:nonzero;stroke:none"
         d="m 108.71,215.7 4.64,-4.63 -4.64,-4.64 -4.63,4.64 4.63,4.63 z" />
      <path
         inkscape:connector-curvature="0"
         id="path4888"
         style="fill:#5b9bd5;fill-opacity:1;fill-rule:nonzero;stroke:none"
         d="m 128.89,215.62 4.63,-4.64 -4.63,-4.64 -4.64,4.64 4.64,4.64 z" />
      <path
         inkscape:connector-curvature="0"
         id="path4890"
         style="fill:#5b9bd5;fill-opacity:1;fill-rule:nonzero;stroke:none"
         d="m 158.76,216.65 4.64,-4.64 -4.64,-4.64 -4.63,4.64 4.63,4.64 z" />
      <path
         inkscape:connector-curvature="0"
         id="path4892"
         style="fill:#5b9bd5;fill-opacity:1;fill-rule:nonzero;stroke:none"
         d="m 195.25,217.33 4.63,-4.63 -4.63,-4.64 -4.64,4.64 4.64,4.63 z" />
      <path
         inkscape:connector-curvature="0"
         id="path4894"
         style="fill:#5b9bd5;fill-opacity:1;fill-rule:nonzero;stroke:none"
         d="m 238,218.36 4.63,-4.63 -4.63,-4.64 -4.64,4.64 4.64,4.63 z" />
      <path
         inkscape:connector-curvature="0"
         id="path4896"
         style="fill:#5b9bd5;fill-opacity:1;fill-rule:nonzero;stroke:none"
         d="m 292.34,219.39 4.64,-4.63 -4.64,-4.64 -4.64,4.64 4.64,4.63 z" />
      <path
         inkscape:connector-curvature="0"
         id="path4898"
         style="fill:#5b9bd5;fill-opacity:1;fill-rule:nonzero;stroke:none"
         d="m 347.71,220.77 4.64,-4.64 -4.64,-4.64 -4.63,4.64 4.63,4.64 z" />
      <path
         inkscape:connector-curvature="0"
         id="path4900"
         style="fill:#5b9bd5;fill-opacity:1;fill-rule:nonzero;stroke:none"
         d="m 421.37,222.31 4.63,-4.63 -4.63,-4.64 -4.64,4.64 4.64,4.63 z" />
      <path
         inkscape:connector-curvature="0"
         id="path4902"
         style="fill:#5b9bd5;fill-opacity:1;fill-rule:nonzero;stroke:none"
         d="m 493.31,224.2 4.63,-4.64 -4.63,-4.63 -4.64,4.63 4.64,4.64 z" />
      <path
         inkscape:connector-curvature="0"
         id="path4904"
         style="fill:#5b9bd5;fill-opacity:1;fill-rule:nonzero;stroke:none"
         d="m 576.58,226.6 4.64,-4.63 -4.64,-4.64 -4.64,4.64 4.64,4.63 z" />
      <path
         inkscape:connector-curvature="0"
         id="path4906"
         style="fill:#5b9bd5;fill-opacity:1;fill-rule:nonzero;stroke:none"
         d="m 662.6,228.66 4.64,-4.63 -4.64,-4.64 -4.64,4.64 4.64,4.63 z" />
      <path
         inkscape:connector-curvature="0"
         id="path4908"
         style="fill:#5b9bd5;fill-opacity:1;fill-rule:nonzero;stroke:none"
         d="m 763.04,231.58 4.64,-4.63 -4.64,-4.64 -4.63,4.64 4.63,4.63 z" />
      <g
         id="g4910">
        <path
           inkscape:connector-curvature="0"
           id="path4912"
           style="fill:none;stroke:#ffc000;stroke-width:1.07309997;stroke-linecap:round;stroke-linejoin:round;stroke-miterlimit:10;stroke-dasharray:0, 2.1462;stroke-dashoffset:0;stroke-opacity:1"
           d="m 108.68,233.7 20.18,0.57 29.87,0.94 36.49,2.32 42.75,26.36 54.34,27.73 55.37,9.35 73.66,29.02 71.94,27.56 83.27,9.7 L 662.57,410 763,441.65" />
      </g>
      <path
         inkscape:connector-curvature="0"
         id="path4914"
         style="fill:#ffc000;fill-opacity:1;fill-rule:nonzero;stroke:none"
         d="m 108.71,238.28 4.64,-4.64 -4.64,-4.63 -4.63,4.63 4.63,4.64 z" />
      <path
         inkscape:connector-curvature="0"
         id="path4916"
         style="fill:#ffc000;fill-opacity:1;fill-rule:nonzero;stroke:none"
         d="m 128.89,238.88 4.63,-4.64 -4.63,-4.63 -4.64,4.63 4.64,4.64 z" />
      <path
         inkscape:connector-curvature="0"
         id="path4918"
         style="fill:#ffc000;fill-opacity:1;fill-rule:nonzero;stroke:none"
         d="m 158.76,239.82 4.64,-4.63 -4.64,-4.64 -4.63,4.64 4.63,4.63 z" />
      <path
         inkscape:connector-curvature="0"
         id="path4920"
         style="fill:#ffc000;fill-opacity:1;fill-rule:nonzero;stroke:none"
         d="m 195.25,242.14 4.63,-4.63 -4.63,-4.64 -4.64,4.64 4.64,4.63 z" />
      <path
         inkscape:connector-curvature="0"
         id="path4922"
         style="fill:#ffc000;fill-opacity:1;fill-rule:nonzero;stroke:none"
         d="m 238,268.5 4.63,-4.64 -4.63,-4.63 -4.64,4.63 4.64,4.64 z" />
      <path
         inkscape:connector-curvature="0"
         id="path4924"
         style="fill:#ffc000;fill-opacity:1;fill-rule:nonzero;stroke:none"
         d="m 292.34,296.23 4.64,-4.64 -4.64,-4.64 -4.64,4.64 4.64,4.64 z" />
      <path
         inkscape:connector-curvature="0"
         id="path4926"
         style="fill:#ffc000;fill-opacity:1;fill-rule:nonzero;stroke:none"
         d="m 347.71,305.58 4.64,-4.63 -4.64,-4.64 -4.63,4.64 4.63,4.63 z" />
      <path
         inkscape:connector-curvature="0"
         id="path4928"
         style="fill:#ffc000;fill-opacity:1;fill-rule:nonzero;stroke:none"
         d="m 421.37,334.6 4.63,-4.64 -4.63,-4.63 -4.64,4.63 4.64,4.64 z" />
      <path
         inkscape:connector-curvature="0"
         id="path4930"
         style="fill:#ffc000;fill-opacity:1;fill-rule:nonzero;stroke:none"
         d="m 493.31,362.16 4.63,-4.64 -4.63,-4.63 -4.64,4.63 4.64,4.64 z" />
      <path
         inkscape:connector-curvature="0"
         id="path4932"
         style="fill:#ffc000;fill-opacity:1;fill-rule:nonzero;stroke:none"
         d="m 576.58,371.86 4.64,-4.64 -4.64,-4.63 -4.64,4.63 4.64,4.64 z" />
      <path
         inkscape:connector-curvature="0"
         id="path4934"
         style="fill:#ffc000;fill-opacity:1;fill-rule:nonzero;stroke:none"
         d="m 662.6,414.61 4.64,-4.64 -4.64,-4.63 -4.64,4.63 4.64,4.64 z" />
      <path
         inkscape:connector-curvature="0"
         id="path4936"
         style="fill:#ffc000;fill-opacity:1;fill-rule:nonzero;stroke:none"
         d="m 763.04,446.29 4.64,-4.64 -4.64,-4.63 -4.63,4.63 4.63,4.64 z" />
      <g
         id="g4938">
        <path
           inkscape:connector-curvature="0"
           id="path4940"
           style="fill:none;stroke:#00b050;stroke-width:1.07309997;stroke-linecap:round;stroke-linejoin:round;stroke-miterlimit:10;stroke-dasharray:0, 2.1462;stroke-dashoffset:0;stroke-opacity:1"
           d="m 108.68,222.34 20.18,-2.28 29.87,0.48 36.49,0.6 42.75,0.34 54.34,0.6 55.37,0.69 73.66,0.68 71.94,0.43 83.27,0.95 86.02,0.43 100.43,0.59" />
      </g>
      <path
         inkscape:connector-curvature="0"
         id="path4942"
         style="fill:#00b050;fill-opacity:1;fill-rule:nonzero;stroke:none"
         d="m 108.71,226.95 4.64,-4.64 -4.64,-4.63 -4.63,4.63 4.63,4.64 z" />
      <path
         inkscape:connector-curvature="0"
         id="path4944"
         style="fill:#00b050;fill-opacity:1;fill-rule:nonzero;stroke:none"
         d="m 128.89,224.63 4.63,-4.64 -4.63,-4.63 -4.64,4.63 4.64,4.64 z" />
      <path
         inkscape:connector-curvature="0"
         id="path4946"
         style="fill:#00b050;fill-opacity:1;fill-rule:nonzero;stroke:none"
         d="m 158.76,225.14 4.64,-4.63 -4.64,-4.64 -4.63,4.64 4.63,4.63 z" />
      <path
         inkscape:connector-curvature="0"
         id="path4948"
         style="fill:#00b050;fill-opacity:1;fill-rule:nonzero;stroke:none"
         d="m 195.25,225.75 4.63,-4.64 -4.63,-4.64 -4.64,4.64 4.64,4.64 z" />
      <path
         inkscape:connector-curvature="0"
         id="path4950"
         style="fill:#00b050;fill-opacity:1;fill-rule:nonzero;stroke:none"
         d="m 238,226.09 4.63,-4.64 -4.63,-4.63 -4.64,4.63 4.64,4.64 z" />
      <path
         inkscape:connector-curvature="0"
         id="path4952"
         style="fill:#00b050;fill-opacity:1;fill-rule:nonzero;stroke:none"
         d="m 292.34,226.69 4.64,-4.64 -4.64,-4.63 -4.64,4.63 4.64,4.64 z" />
      <path
         inkscape:connector-curvature="0"
         id="path4954"
         style="fill:#00b050;fill-opacity:1;fill-rule:nonzero;stroke:none"
         d="m 347.71,227.38 4.64,-4.64 -4.64,-4.63 -4.63,4.63 4.63,4.64 z" />
      <path
         inkscape:connector-curvature="0"
         id="path4956"
         style="fill:#00b050;fill-opacity:1;fill-rule:nonzero;stroke:none"
         d="m 421.37,228.06 4.63,-4.63 -4.63,-4.64 -4.64,4.64 4.64,4.63 z" />
      <path
         inkscape:connector-curvature="0"
         id="path4958"
         style="fill:#00b050;fill-opacity:1;fill-rule:nonzero;stroke:none"
         d="m 493.31,228.49 4.63,-4.63 -4.63,-4.64 -4.64,4.64 4.64,4.63 z" />
      <path
         inkscape:connector-curvature="0"
         id="path4960"
         style="fill:#00b050;fill-opacity:1;fill-rule:nonzero;stroke:none"
         d="m 576.58,229.44 4.64,-4.64 -4.64,-4.63 -4.64,4.63 4.64,4.64 z" />
      <path
         inkscape:connector-curvature="0"
         id="path4962"
         style="fill:#00b050;fill-opacity:1;fill-rule:nonzero;stroke:none"
         d="m 662.6,229.87 4.64,-4.64 -4.64,-4.64 -4.64,4.64 4.64,4.64 z" />
      <path
         inkscape:connector-curvature="0"
         id="path4964"
         style="fill:#00b050;fill-opacity:1;fill-rule:nonzero;stroke:none"
         d="m 763.04,230.47 4.64,-4.64 -4.64,-4.63 -4.63,4.63 4.63,4.64 z" />
      <g
         id="g4966">
        <g
           clip-path="url(#clipPath4970)"
           id="g4968">
          <text
             id="text4974"
             style="font-variant:normal;font-weight:normal;font-size:11.42399979px;font-family:Calibri;-inkscape-font-specification:Calibri;writing-mode:lr-tb;fill:#595959;fill-opacity:1;fill-rule:nonzero;stroke:none"
             transform="matrix(1,0,0,-1,83.4,198.41)">
            <tspan
               id="tspan4976"
               y="0"
               x="0">0</tspan>
          </text>
        </g>
      </g>
      <g
         id="g4978">
        <g
           clip-path="url(#clipPath4982)"
           id="g4980">
          <text
             id="text4986"
             style="font-variant:normal;font-weight:normal;font-size:11.42399979px;font-family:Calibri;-inkscape-font-specification:Calibri;writing-mode:lr-tb;fill:#595959;fill-opacity:1;fill-rule:nonzero;stroke:none"
             transform="matrix(1,0,0,-1,83.4,241.51)">
            <tspan
               id="tspan4988"
               y="0"
               x="0">5</tspan>
          </text>
        </g>
      </g>
      <g
         id="g4990">
        <g
           clip-path="url(#clipPath4994)"
           id="g4992">
          <text
             id="text4998"
             style="font-variant:normal;font-weight:normal;font-size:11.42399979px;font-family:Calibri;-inkscape-font-specification:Calibri;writing-mode:lr-tb;fill:#595959;fill-opacity:1;fill-rule:nonzero;stroke:none"
             transform="matrix(1,0,0,-1,77.592,284.64)">
            <tspan
               id="tspan5000"
               sodipodi:role="line"
               y="0"
               x="0 5.8319678">10</tspan>
          </text>
        </g>
      </g>
      <g
         id="g5002">
        <g
           clip-path="url(#clipPath5006)"
           id="g5004">
          <text
             id="text5010"
             style="font-variant:normal;font-weight:normal;font-size:11.42399979px;font-family:Calibri;-inkscape-font-specification:Calibri;writing-mode:lr-tb;fill:#595959;fill-opacity:1;fill-rule:nonzero;stroke:none"
             transform="matrix(1,0,0,-1,77.592,327.77)">
            <tspan
               id="tspan5012"
               sodipodi:role="line"
               y="0"
               x="0 5.8319678">15</tspan>
          </text>
        </g>
      </g>
      <g
         id="g5014">
        <g
           clip-path="url(#clipPath5018)"
           id="g5016">
          <text
             id="text5022"
             style="font-variant:normal;font-weight:normal;font-size:11.39999962px;font-family:Calibri;-inkscape-font-specification:Calibri;writing-mode:lr-tb;fill:#595959;fill-opacity:1;fill-rule:nonzero;stroke:none"
             transform="matrix(1,0,0,-1,77.592,370.87)">
            <tspan
               id="tspan5024"
               sodipodi:role="line"
               y="0"
               x="0 5.8319998">20</tspan>
          </text>
        </g>
      </g>
      <g
         id="g5026">
        <g
           clip-path="url(#clipPath5030)"
           id="g5028">
          <text
             id="text5034"
             style="font-variant:normal;font-weight:normal;font-size:11.42399979px;font-family:Calibri;-inkscape-font-specification:Calibri;writing-mode:lr-tb;fill:#595959;fill-opacity:1;fill-rule:nonzero;stroke:none"
             transform="matrix(1,0,0,-1,77.592,414)">
            <tspan
               id="tspan5036"
               sodipodi:role="line"
               y="0"
               x="0 5.8319678">25</tspan>
          </text>
        </g>
      </g>
      <g
         id="g5038">
        <g
           clip-path="url(#clipPath5042)"
           id="g5040">
          <text
             id="text5046"
             style="font-variant:normal;font-weight:normal;font-size:11.42399979px;font-family:Calibri;-inkscape-font-specification:Calibri;writing-mode:lr-tb;fill:#595959;fill-opacity:1;fill-rule:nonzero;stroke:none"
             transform="matrix(1,0,0,-1,77.592,457.13)">
            <tspan
               id="tspan5048"
               sodipodi:role="line"
               y="0"
               x="0 5.8319678">30</tspan>
          </text>
        </g>
      </g>
      <g
         id="g5050">
        <g
           clip-path="url(#clipPath5054)"
           id="g5052">
          <text
             id="text5058"
             style="font-variant:normal;font-weight:normal;font-size:11.39999962px;font-family:Calibri;-inkscape-font-specification:Calibri;writing-mode:lr-tb;fill:#595959;fill-opacity:1;fill-rule:nonzero;stroke:none"
             transform="matrix(1,0,0,-1,96.912,183.5)">
            <tspan
               id="tspan5060"
               y="0"
               x="0">0</tspan>
          </text>
        </g>
      </g>
      <g
         id="g5062">
        <g
           clip-path="url(#clipPath5066)"
           id="g5064">
          <text
             id="text5070"
             style="font-variant:normal;font-weight:normal;font-size:11.39999962px;font-family:Calibri;-inkscape-font-specification:Calibri;writing-mode:lr-tb;fill:#595959;fill-opacity:1;fill-rule:nonzero;stroke:none"
             transform="matrix(1,0,0,-1,155.14,183.5)">
            <tspan
               id="tspan5072"
               sodipodi:role="line"
               y="0"
               x="0 5.8253999 11.6052 17.385">5000</tspan>
          </text>
        </g>
      </g>
      <g
         id="g5074">
        <g
           clip-path="url(#clipPath5078)"
           id="g5076">
          <text
             id="text5082"
             style="font-variant:normal;font-weight:normal;font-size:11.39999962px;font-family:Calibri;-inkscape-font-specification:Calibri;writing-mode:lr-tb;fill:#595959;fill-opacity:1;fill-rule:nonzero;stroke:none"
             transform="matrix(1,0,0,-1,219.14,183.5)">
            <tspan
               id="tspan5084"
               sodipodi:role="line"
               y="0"
               x="0 5.8481998 11.628 17.4534 23.2332">10000</tspan>
          </text>
        </g>
      </g>
      <g
         id="g5086">
        <g
           clip-path="url(#clipPath5090)"
           id="g5088">
          <text
             id="text5094"
             style="font-variant:normal;font-weight:normal;font-size:11.39999962px;font-family:Calibri;-inkscape-font-specification:Calibri;writing-mode:lr-tb;fill:#595959;fill-opacity:1;fill-rule:nonzero;stroke:none"
             transform="matrix(1,0,0,-1,286.08,183.5)">
            <tspan
               id="tspan5096"
               sodipodi:role="line"
               y="0"
               x="0 5.8253999 11.5596 17.385 23.1192">15000</tspan>
          </text>
        </g>
      </g>
      <g
         id="g5098">
        <g
           clip-path="url(#clipPath5102)"
           id="g5100">
          <text
             id="text5106"
             style="font-variant:normal;font-weight:normal;font-size:11.39999962px;font-family:Calibri;-inkscape-font-specification:Calibri;writing-mode:lr-tb;fill:#595959;fill-opacity:1;fill-rule:nonzero;stroke:none"
             transform="matrix(1,0,0,-1,352.99,183.5)">
            <tspan
               id="tspan5108"
               sodipodi:role="line"
               y="0"
               x="0 5.8253999 11.5596 17.385 23.1192">20000</tspan>
          </text>
        </g>
      </g>
      <g
         id="g5110">
        <g
           clip-path="url(#clipPath5114)"
           id="g5112">
          <text
             id="text5118"
             style="font-variant:normal;font-weight:normal;font-size:11.39999962px;font-family:Calibri;-inkscape-font-specification:Calibri;writing-mode:lr-tb;fill:#595959;fill-opacity:1;fill-rule:nonzero;stroke:none"
             transform="matrix(1,0,0,-1,419.9,183.5)">
            <tspan
               id="tspan5120"
               sodipodi:role="line"
               y="0"
               x="0 5.8253999 11.6052 17.385 23.164801">25000</tspan>
          </text>
        </g>
      </g>
      <g
         id="g5122">
        <g
           clip-path="url(#clipPath5126)"
           id="g5124">
          <text
             id="text5130"
             style="font-variant:normal;font-weight:normal;font-size:11.39999962px;font-family:Calibri;-inkscape-font-specification:Calibri;writing-mode:lr-tb;fill:#595959;fill-opacity:1;fill-rule:nonzero;stroke:none"
             transform="matrix(1,0,0,-1,486.82,183.5)">
            <tspan
               id="tspan5132"
               sodipodi:role="line"
               y="0"
               x="0 5.8481998 11.628 17.4534 23.2332">30000</tspan>
          </text>
        </g>
      </g>
      <g
         id="g5134">
        <g
           clip-path="url(#clipPath5138)"
           id="g5136">
          <text
             id="text5142"
             style="font-variant:normal;font-weight:normal;font-size:11.39999962px;font-family:Calibri;-inkscape-font-specification:Calibri;writing-mode:lr-tb;fill:#595959;fill-opacity:1;fill-rule:nonzero;stroke:none"
             transform="matrix(1,0,0,-1,553.75,183.5)">
            <tspan
               id="tspan5144"
               sodipodi:role="line"
               y="0"
               x="0 5.8253999 11.5596 17.385 23.1192">35000</tspan>
          </text>
        </g>
      </g>
      <g
         id="g5146">
        <g
           clip-path="url(#clipPath5150)"
           id="g5148">
          <text
             id="text5154"
             style="font-variant:normal;font-weight:normal;font-size:11.39999962px;font-family:Calibri;-inkscape-font-specification:Calibri;writing-mode:lr-tb;fill:#595959;fill-opacity:1;fill-rule:nonzero;stroke:none"
             transform="matrix(1,0,0,-1,620.66,183.5)">
            <tspan
               id="tspan5156"
               sodipodi:role="line"
               y="0"
               x="0 5.8253999 11.6052 17.385 23.164801">40000</tspan>
          </text>
        </g>
      </g>
      <g
         id="g5158">
        <g
           clip-path="url(#clipPath5162)"
           id="g5160">
          <text
             id="text5166"
             style="font-variant:normal;font-weight:normal;font-size:11.39999962px;font-family:Calibri;-inkscape-font-specification:Calibri;writing-mode:lr-tb;fill:#595959;fill-opacity:1;fill-rule:nonzero;stroke:none"
             transform="matrix(1,0,0,-1,687.58,183.5)">
            <tspan
               id="tspan5168"
               sodipodi:role="line"
               y="0"
               x="0 5.8253999 11.6052 17.385 23.164801">45000</tspan>
          </text>
        </g>
      </g>
      <g
         id="g5170">
        <g
           clip-path="url(#clipPath5174)"
           id="g5172">
          <text
             id="text5178"
             style="font-variant:normal;font-weight:normal;font-size:11.39999962px;font-family:Calibri;-inkscape-font-specification:Calibri;writing-mode:lr-tb;fill:#595959;fill-opacity:1;fill-rule:nonzero;stroke:none"
             transform="matrix(1,0,0,-1,754.49,183.5)">
            <tspan
               id="tspan5180"
               sodipodi:role="line"
               y="0"
               x="0 5.8481998 11.628 17.4534 23.2332">50000</tspan>
          </text>
        </g>
      </g>
      <g
         id="g5182">
        <g
           clip-path="url(#clipPath5186)"
           id="g5184">
          <text
             id="text5190"
             style="font-variant:normal;font-weight:normal;font-size:12.88799953px;font-family:Calibri;-inkscape-font-specification:Calibri;writing-mode:lr-tb;fill:#595959;fill-opacity:1;fill-rule:nonzero;stroke:none"
             transform="matrix(-4.4e-8,1,1,4.4e-8,72,281.76)">
            <tspan
               id="tspan5192"
               sodipodi:role="line"
               y="0"
               x="0 6.7662001 13.2102 17.708113 21.368303 28.16028 32.658192 42.955704 49.090393 55.85659 61.308216 67.72644 70.548912 73.513153 80.27935 83.192039 93.489555">performance in ms</tspan>
          </text>
        </g>
      </g>
      <g
         id="g5194">
        <g
           clip-path="url(#clipPath5198)"
           id="g5196">
          <text
             id="text5202"
             style="font-variant:normal;font-weight:normal;font-size:12.86400032px;font-family:Calibri;-inkscape-font-specification:Calibri;writing-mode:lr-tb;fill:#595959;fill-opacity:1;fill-rule:nonzero;stroke:none"
             transform="matrix(1,0,0,-1,402.96,166.01)">
            <tspan
               id="tspan5204"
               sodipodi:role="line"
               y="0"
               x="0 5.325696 11.487552 16.929024 23.682625 30.127487 33.034752 38.386177 45.165504 51.957695 58.65984">cache count</tspan>
          </text>
        </g>
      </g>
      <g
         id="g5206">
        <path
           inkscape:connector-curvature="0"
           id="path5208"
           style="fill:none;stroke:#5b9bd5;stroke-width:1.07309997;stroke-linecap:round;stroke-linejoin:round;stroke-miterlimit:10;stroke-dasharray:0, 2.1462;stroke-dashoffset:0;stroke-opacity:1"
           d="m 213.53,141.2 18.03,0" />
      </g>
      <path
         inkscape:connector-curvature="0"
         id="path5210"
         style="fill:#5b9bd5;fill-opacity:1;fill-rule:nonzero;stroke:none"
         d="m 222.52,145.85 4.63,-4.64 -4.63,-4.63 -4.64,4.63 4.64,4.64 z" />
      <g
         id="g5212">
        <g
           clip-path="url(#clipPath5216)"
           id="g5214">
          <text
             id="text5220"
             style="font-variant:normal;font-weight:normal;font-size:17.18400002px;font-family:Calibri;-inkscape-font-specification:Calibri;writing-mode:lr-tb;fill:#595959;fill-opacity:1;fill-rule:nonzero;stroke:none"
             transform="matrix(1,0,0,-1,233.59,136.22)">
            <tspan
               id="tspan5222"
               sodipodi:role="line"
               y="0"
               x="0 9.9495363 13.901856 17.854176 26.824224 34.093056 42.324192 48.012096 56.569729 60.453312 69.612381 77.843521 85.043617 94.065216 102.62285">Allocate Caches</tspan>
          </text>
        </g>
      </g>
      <g
         id="g5224">
        <path
           inkscape:connector-curvature="0"
           id="path5226"
           style="fill:none;stroke:#ffc000;stroke-width:1.07309997;stroke-linecap:round;stroke-linejoin:round;stroke-miterlimit:10;stroke-dasharray:0, 2.1462;stroke-dashoffset:0;stroke-opacity:1"
           d="m 364.63,141.2 18.03,0" />
      </g>
      <path
         inkscape:connector-curvature="0"
         id="path5228"
         style="fill:#ffc000;fill-opacity:1;fill-rule:nonzero;stroke:none"
         d="m 373.61,145.85 4.64,-4.64 -4.64,-4.63 -4.64,4.63 4.64,4.64 z" />
      <g
         id="g5230">
        <g
           clip-path="url(#clipPath5234)"
           id="g5232">
          <text
             id="text5238"
             style="font-variant:normal;font-weight:normal;font-size:17.18400002px;font-family:Calibri;-inkscape-font-specification:Calibri;writing-mode:lr-tb;fill:#595959;fill-opacity:1;fill-rule:nonzero;stroke:none"
             transform="matrix(1,0,0,-1,384.7,136.22)">
            <tspan
               id="tspan5240"
               sodipodi:role="line"
               y="0"
               x="0 4.330368 13.351968 22.373568 26.325888 32.323105 40.880737 48.149567 53.906208 57.789791 65.007072 68.907837 77.053055 86.074654 91.831299 95.783615 104.80521">Indirect Lighting</tspan>
          </text>
        </g>
      </g>
      <g
         id="g5242">
        <path
           inkscape:connector-curvature="0"
           id="path5244"
           style="fill:none;stroke:#00b050;stroke-width:1.07309997;stroke-linecap:round;stroke-linejoin:round;stroke-miterlimit:10;stroke-dasharray:0, 2.1462;stroke-dashoffset:0;stroke-opacity:1"
           d="m 519.06,141.2 18.03,0" />
      </g>
      <path
         inkscape:connector-curvature="0"
         id="path5246"
         style="fill:#00b050;fill-opacity:1;fill-rule:nonzero;stroke:none"
         d="m 528.05,145.85 4.63,-4.64 -4.63,-4.63 -4.64,4.63 4.64,4.64 z" />
      <g
         id="g5248">
        <g
           clip-path="url(#clipPath5252)"
           id="g5250">
          <text
             id="text5256"
             style="font-variant:normal;font-weight:normal;font-size:17.18400002px;font-family:Calibri;-inkscape-font-specification:Calibri;writing-mode:lr-tb;fill:#595959;fill-opacity:1;fill-rule:nonzero;stroke:none"
             transform="matrix(1,0,0,-1,539.16,136.22)">
            <tspan
               id="tspan5258"
               sodipodi:role="line"
               y="0"
               x="0 9.9495363 18.971136 27.992737 31.945057 39.626305 43.544254 52.63459 60.865726 68.13456 77.156158 85.662239">Apply Caches</tspan>
          </text>
        </g>
      </g>
      <g
         id="g5260">
        <g
           clip-path="url(#clipPath5264)"
           id="g5262">
          <path
             inkscape:connector-curvature="0"
             id="path5268"
             style="fill:none;stroke:#d9d9d9;stroke-width:0.53654999;stroke-linecap:butt;stroke-linejoin:round;stroke-miterlimit:10;stroke-dasharray:none;stroke-opacity:1"
             d="m 50.766,124.39 740.51,0 0,346.62 -740.51,0 0,-346.62 z" />
        </g>
      </g>
    </g>
  </g>
</svg>
